<svg id="Layer_1" data-name="Layer 1" xmlns="http://www.w3.org/2000/svg" viewBox="0 0 127.103 72.815"><defs><style>.cls-1{fill:#24326c;}</style></defs><title>Aetna</title><path class="cls-1" d="M29.224,20.611V62.064h13.7V47.309h12.93V62.064H69.418V7.02H42.108C34.522,7.02,29.224,12.609,29.224,20.611ZM67.07,9.367v50.35H58.205V45.554a.593.593,0,0,0-.593-.593H41.174a.593.593,0,0,0-.593.593V59.717h-9.01V20.611c0-6.506,4.031-11.244,10.537-11.244Z" transform="translate(-6.336 -7.02)"/><path class="cls-1" d="M41.174,35.663H57.613a.593.593,0,0,0,.593-.593V18.389a.593.593,0,0,0-.593-.593H44.44c-2.735,0-3.859,2.188-3.859,4.619V35.071A.593.593,0,0,0,41.174,35.663Zm1.754-13.249c0-2.272,1.1-2.272,1.512-2.272H55.858V33.316H42.928Z" transform="translate(-6.336 -7.02)"/><path class="cls-1" d="M97.549,7.02H71.3V62.064H85.046V47.143h13a12.92,12.92,0,0,0,9.356-3.912,11.779,11.779,0,0,0,3.457-7.911V19.48C110.857,12.26,105.26,7.02,97.549,7.02Zm10.961,28.3c0,4.1-3.96,9.476-10.466,9.476H83.291a.593.593,0,0,0-.593.593V59.717H73.647V9.367h23.9c6.647,0,10.961,4.384,10.961,10.112Z" transform="translate(-6.336 -7.02)"/><path class="cls-1" d="M94.65,17.924H83.291a.593.593,0,0,0-.593.593V35.081a.593.593,0,0,0,.593.593H94.932c2.687,0,4.172-1.414,4.172-3.607V21.884C99.1,19.2,97.549,17.924,94.65,17.924Zm2.108,14.143c0,.471,0,1.259-1.825,1.259H85.046V20.271h9.6a2.731,2.731,0,0,1,1.774.4,1.742,1.742,0,0,1,.334,1.218Z" transform="translate(-6.336 -7.02)"/><path class="cls-1" d="M10.492,77.535l-.67,1.954H6.336l5.1-13.511H14l5.049,13.511H15.524l-.618-1.954Zm.893-2.739h2.662l-1.305-4.619h-.052Z" transform="translate(-6.336 -7.02)"/><path class="cls-1" d="M29.761,76.311A5.892,5.892,0,0,1,27.821,78.9a4.446,4.446,0,0,1-2.714.913,5.419,5.419,0,0,1-.052-10.809c2.9,0,5.032,2.447,5.032,5.532a4.4,4.4,0,0,1-.069.8H22.874a2.174,2.174,0,0,0,2.233,1.917,2,2,0,0,0,1.735-.949ZM27.237,73.3a2.217,2.217,0,0,0-4.328,0Z" transform="translate(-6.336 -7.02)"/><path class="cls-1" d="M35.428,69.355H36.8v2.3H35.428v7.833H32.577V71.656H31.169v-2.3h1.408V65.977h2.851Z" transform="translate(-6.336 -7.02)"/><path class="cls-1" d="M38.039,69.355H40.7v1.077h.034a2.7,2.7,0,0,1,2.593-1.424,3.952,3.952,0,0,1,2.439.876c.515.475,1.1,1.278,1.1,3.268v6.335H44.015V73.956c0-.712,0-2.1-1.494-2.1-1.632,0-1.632,1.5-1.632,2.118v5.514H38.039Z" transform="translate(-6.336 -7.02)"/><path class="cls-1" d="M59.592,79.488H56.741v-1.1h-.034a3.021,3.021,0,0,1-2.782,1.442c-3.023,0-4.792-2.519-4.792-5.423,0-3.323,2.25-5.4,4.792-5.4a3.052,3.052,0,0,1,2.782,1.424h.034V69.355h2.851Zm-5.238-2.483a2.594,2.594,0,1,0-2.37-2.556A2.445,2.445,0,0,0,54.354,77.005Z" transform="translate(-6.336 -7.02)"/><path class="cls-1" d="M66.409,65.977h4.156c2.353,0,3.229.383,3.916.986a4.727,4.727,0,0,1,1.494,3.579,5.039,5.039,0,0,1-1.34,3.542,4.77,4.77,0,0,1-3.71,1.169H69.518v4.236H66.409Zm3.109,6.244H70.84c.618,0,2.027,0,2.027-1.625,0-1.588-1.443-1.588-2.147-1.588h-1.2Z" transform="translate(-6.336 -7.02)"/><path class="cls-1" d="M77.555,65.977h2.851V79.488H77.555Z" transform="translate(-6.336 -7.02)"/><path class="cls-1" d="M92.479,79.488H89.628v-1.1h-.034a3.021,3.021,0,0,1-2.782,1.442c-3.023,0-4.792-2.519-4.792-5.423,0-3.323,2.25-5.4,4.792-5.4a3.052,3.052,0,0,1,2.782,1.424h.034V69.355h2.851Zm-5.238-2.483a2.594,2.594,0,1,0-2.37-2.556A2.445,2.445,0,0,0,87.241,77.005Z" transform="translate(-6.336 -7.02)"/><path class="cls-1" d="M98.61,72.2c-.017-.219-.052-.767-.893-.767a.714.714,0,0,0-.807.676c0,.548.7.858,1.46,1.1,1.614.475,3.332.986,3.332,3.177,0,2.136-1.769,3.451-3.881,3.451a3.636,3.636,0,0,1-3.882-3.359h2.834a1.022,1.022,0,0,0,1.082.931c.481,0,1-.292,1-.785,0-.785-.7-.876-2.525-1.625a2.892,2.892,0,0,1-2.267-2.647,3.464,3.464,0,0,1,3.693-3.341,3.394,3.394,0,0,1,3.658,3.2Z" transform="translate(-6.336 -7.02)"/><path class="cls-1" d="M106.888,69.355h1.374v2.3h-1.374v7.833h-2.851V71.656h-1.408v-2.3h1.408V65.977h2.851Z" transform="translate(-6.336 -7.02)"/><path class="cls-1" d="M112.692,68.278h-2.851v-2.3h2.851Zm0,11.21h-2.851V69.355h2.851Z" transform="translate(-6.336 -7.02)"/><path class="cls-1" d="M124.388,75.636a5.488,5.488,0,1,1-.017-2.374h-2.885a2.143,2.143,0,0,0-2.061-1.424,2.307,2.307,0,0,0-2.267,2.574,2.337,2.337,0,0,0,2.267,2.574,2.189,2.189,0,0,0,2.061-1.351Z" transform="translate(-6.336 -7.02)"/><path class="cls-1" d="M130.347,72.2c-.017-.219-.052-.767-.893-.767a.714.714,0,0,0-.807.676c0,.548.7.858,1.46,1.1,1.614.475,3.332.986,3.332,3.177,0,2.136-1.769,3.451-3.881,3.451a3.636,3.636,0,0,1-3.881-3.359h2.834a1.022,1.022,0,0,0,1.082.931c.481,0,1-.292,1-.785,0-.785-.7-.876-2.525-1.625a2.892,2.892,0,0,1-2.267-2.647,3.464,3.464,0,0,1,3.693-3.341,3.394,3.394,0,0,1,3.658,3.2Z" transform="translate(-6.336 -7.02)"/><path class="cls-1" d="M29.224,20.611V62.064h13.7V47.309h12.93V62.064H69.418V7.02H42.108C34.522,7.02,29.224,12.609,29.224,20.611ZM67.07,9.367v50.35H58.205V45.554a.593.593,0,0,0-.593-.593H41.174a.593.593,0,0,0-.593.593V59.717h-9.01V20.611c0-6.506,4.031-11.244,10.537-11.244Z" transform="translate(-6.336 -7.02)"/><path class="cls-1" d="M41.174,35.663H57.613a.593.593,0,0,0,.593-.593V18.389a.593.593,0,0,0-.593-.593H44.44c-2.735,0-3.859,2.188-3.859,4.619V35.071A.593.593,0,0,0,41.174,35.663Zm1.754-13.249c0-2.272,1.1-2.272,1.512-2.272H55.858V33.316H42.928Z" transform="translate(-6.336 -7.02)"/><path class="cls-1" d="M97.549,7.02H71.3V62.064H85.046V47.143h13a12.92,12.92,0,0,0,9.356-3.912,11.779,11.779,0,0,0,3.457-7.911V19.48C110.857,12.26,105.26,7.02,97.549,7.02Zm10.961,28.3c0,4.1-3.96,9.476-10.466,9.476H83.291a.593.593,0,0,0-.593.593V59.717H73.647V9.367h23.9c6.647,0,10.961,4.384,10.961,10.112Z" transform="translate(-6.336 -7.02)"/><path class="cls-1" d="M94.65,17.924H83.291a.593.593,0,0,0-.593.593V35.081a.593.593,0,0,0,.593.593H94.932c2.687,0,4.172-1.414,4.172-3.607V21.884C99.1,19.2,97.549,17.924,94.65,17.924Zm2.108,14.143c0,.471,0,1.259-1.825,1.259H85.046V20.271h9.6a2.731,2.731,0,0,1,1.774.4,1.742,1.742,0,0,1,.334,1.218Z" transform="translate(-6.336 -7.02)"/><path class="cls-1" d="M10.492,77.535l-.67,1.954H6.336l5.1-13.511H14l5.049,13.511H15.524l-.618-1.954Zm.893-2.739h2.662l-1.305-4.619h-.052Z" transform="translate(-6.336 -7.02)"/><path class="cls-1" d="M29.761,76.311A5.892,5.892,0,0,1,27.821,78.9a4.446,4.446,0,0,1-2.714.913,5.419,5.419,0,0,1-.052-10.809c2.9,0,5.032,2.447,5.032,5.532a4.4,4.4,0,0,1-.069.8H22.874a2.174,2.174,0,0,0,2.233,1.917,2,2,0,0,0,1.735-.949ZM27.237,73.3a2.217,2.217,0,0,0-4.328,0Z" transform="translate(-6.336 -7.02)"/><path class="cls-1" d="M35.428,69.355H36.8v2.3H35.428v7.833H32.577V71.656H31.169v-2.3h1.408V65.977h2.851Z" transform="translate(-6.336 -7.02)"/><path class="cls-1" d="M38.039,69.355H40.7v1.077h.034a2.7,2.7,0,0,1,2.593-1.424,3.952,3.952,0,0,1,2.439.876c.515.475,1.1,1.278,1.1,3.268v6.335H44.015V73.956c0-.712,0-2.1-1.494-2.1-1.632,0-1.632,1.5-1.632,2.118v5.514H38.039Z" transform="translate(-6.336 -7.02)"/><path class="cls-1" d="M59.592,79.488H56.741v-1.1h-.034a3.021,3.021,0,0,1-2.782,1.442c-3.023,0-4.792-2.519-4.792-5.423,0-3.323,2.25-5.4,4.792-5.4a3.052,3.052,0,0,1,2.782,1.424h.034V69.355h2.851Zm-5.238-2.483a2.594,2.594,0,1,0-2.37-2.556A2.445,2.445,0,0,0,54.354,77.005Z" transform="translate(-6.336 -7.02)"/><path class="cls-1" d="M66.409,65.977h4.156c2.353,0,3.229.383,3.916.986a4.727,4.727,0,0,1,1.494,3.579,5.039,5.039,0,0,1-1.34,3.542,4.77,4.77,0,0,1-3.71,1.169H69.518v4.236H66.409Zm3.109,6.244H70.84c.618,0,2.027,0,2.027-1.625,0-1.588-1.443-1.588-2.147-1.588h-1.2Z" transform="translate(-6.336 -7.02)"/><path class="cls-1" d="M77.555,65.977h2.851V79.488H77.555Z" transform="translate(-6.336 -7.02)"/><path class="cls-1" d="M92.479,79.488H89.628v-1.1h-.034a3.021,3.021,0,0,1-2.782,1.442c-3.023,0-4.792-2.519-4.792-5.423,0-3.323,2.25-5.4,4.792-5.4a3.052,3.052,0,0,1,2.782,1.424h.034V69.355h2.851Zm-5.238-2.483a2.594,2.594,0,1,0-2.37-2.556A2.445,2.445,0,0,0,87.241,77.005Z" transform="translate(-6.336 -7.02)"/><path class="cls-1" d="M98.61,72.2c-.017-.219-.052-.767-.893-.767a.714.714,0,0,0-.807.676c0,.548.7.858,1.46,1.1,1.614.475,3.332.986,3.332,3.177,0,2.136-1.769,3.451-3.881,3.451a3.636,3.636,0,0,1-3.882-3.359h2.834a1.022,1.022,0,0,0,1.082.931c.481,0,1-.292,1-.785,0-.785-.7-.876-2.525-1.625a2.892,2.892,0,0,1-2.267-2.647,3.464,3.464,0,0,1,3.693-3.341,3.394,3.394,0,0,1,3.658,3.2Z" transform="translate(-6.336 -7.02)"/><path class="cls-1" d="M106.888,69.355h1.374v2.3h-1.374v7.833h-2.851V71.656h-1.408v-2.3h1.408V65.977h2.851Z" transform="translate(-6.336 -7.02)"/><path class="cls-1" d="M112.692,68.278h-2.851v-2.3h2.851Zm0,11.21h-2.851V69.355h2.851Z" transform="translate(-6.336 -7.02)"/><path class="cls-1" d="M124.388,75.636a5.488,5.488,0,1,1-.017-2.374h-2.885a2.143,2.143,0,0,0-2.061-1.424,2.307,2.307,0,0,0-2.267,2.574,2.337,2.337,0,0,0,2.267,2.574,2.189,2.189,0,0,0,2.061-1.351Z" transform="translate(-6.336 -7.02)"/><path class="cls-1" d="M130.347,72.2c-.017-.219-.052-.767-.893-.767a.714.714,0,0,0-.807.676c0,.548.7.858,1.46,1.1,1.614.475,3.332.986,3.332,3.177,0,2.136-1.769,3.451-3.881,3.451a3.636,3.636,0,0,1-3.881-3.359h2.834a1.022,1.022,0,0,0,1.082.931c.481,0,1-.292,1-.785,0-.785-.7-.876-2.525-1.625a2.892,2.892,0,0,1-2.267-2.647,3.464,3.464,0,0,1,3.693-3.341,3.394,3.394,0,0,1,3.658,3.2Z" transform="translate(-6.336 -7.02)"/></svg>