<?xml version="1.0" encoding="utf-8"?>
<!-- Generator: Adobe Illustrator 21.1.0, SVG Export Plug-In . SVG Version: 6.00 Build 0)  -->
<svg version="1.1" id="Layer_1" xmlns="http://www.w3.org/2000/svg" xmlns:xlink="http://www.w3.org/1999/xlink" x="0px" y="0px"
	 viewBox="0 0 360 360" style="enable-background:new 0 0 360 360;" xml:space="preserve">
<style type="text/css">
	.st0{fill:#5A5A5C;}
	.st1{fill:#FFFFFF;}
	.st2{fill:#22356A;}
	.st3{fill:url(#SVGID_1_);}
	.st4{fill:url(#SVGID_2_);}
	.st5{fill:url(#SVGID_3_);}
	.st6{fill:#961B2E;}
</style>
<g>
	<g>
		<path class="st0" d="M349.6,180.3c-0.1,93.6-76.1,169.9-170.6,169.3c-92.8-0.6-168.5-76-168.2-170.1C11.1,86.3,87,10.1,181.6,10.9
			C274.3,11.6,349.5,86.8,349.6,180.3z"/>
		<path class="st1" d="M180.5,16.8C90.2,16.4,15.5,90.3,16.7,182.5c1.1,88.4,73.3,161.1,163.3,161.2c90,0.2,163.6-72.9,163.7-163.2
			C343.8,90.4,270.8,16.9,180.5,16.8z"/>
	</g>
	<g>
		<path class="st0" d="M180.1,20.1C91.8,19.8,20,91.5,20,179.7c0,87.4,70.8,159.5,159.6,159.6c88.2-0.1,159.4-71.3,159.6-159.3
			C339.4,91.9,268,20.3,180.1,20.1z"/>
		<path class="st2" d="M180.1,22.2c-87.1-0.2-158,70.5-158,157.5c0,86.2,69.8,157.4,157.5,157.5c87-0.1,157.3-70.3,157.5-157.2
			C337.3,93.1,266.8,22.4,180.1,22.2z"/>
		<path class="st1" d="M328.9,155.7c0.6,4-1.3,7.6-5,9.7c-3.3,1.8-6.9,2.5-10.6,2.6c-2.4,0-4.6-0.3-6.7-1.5
			c-2.8-1.6-4.1-4.1-4.6-7.2c-0.7-5.3,1.9-8.7,6-10.5c4.2-1.9,8.7-2.7,13.3-1.7C325.7,148.1,328.3,151,328.9,155.7z"/>
		<path class="st1" d="M324.8,139.1c-8.3,2.5-16.6,5-25,7.6c-0.6-1.8-1.1-3.5-1.6-5.3c8.4-2.5,16.6-5,25-7.6
			C323.7,135.6,324.2,137.2,324.8,139.1z"/>
		<path class="st1" d="M321.9,129.5c-1.6,0.7-3.1,1.3-4.8,2c-0.7-1.6-1.3-3-2-4.7c-6.4,2.7-12.8,5.3-19.3,8
			c-0.7-1.7-1.4-3.4-2.2-5.1c6.4-2.7,12.8-5.4,19.3-8.1c-0.6-1.6-1.3-3.1-1.9-4.8c1.6-0.7,3.1-1.3,4.8-2
			C317.8,119.7,319.8,124.5,321.9,129.5z"/>
		<path class="st1" d="M311.3,106.4c-6.1,6.7-12.2,13.4-18.4,20.2c-1.1-1.9-2.1-3.6-3.1-5.3c1.3-1.4,2.6-2.8,4-4.2
			c-1.3-2.2-2.6-4.4-4-6.7c-1.9,0.5-3.7,0.9-5.7,1.4c-0.9-1.6-1.8-3.2-2.9-4.9c8.9-2.2,17.6-4.3,26.5-6.5
			C309,102.5,310.1,104.4,311.3,106.4z"/>
		<path class="st1" d="M300.4,89.9c-6.9,5.3-13.7,10.7-20.6,16.1c-1.2-1.5-2.3-2.9-3.5-4.4c6.9-5.4,13.7-10.7,20.6-16.1
			C298.1,87,299.2,88.4,300.4,89.9z"/>
		<path class="st1" d="M289.8,76.7c1.5,1.6,2.6,3.4,3.5,5.6c-1.4,1.2-2.8,2.4-4.2,3.5c-0.6-1.3-0.9-2.5-1.6-3.6
			c-2.1-3.2-5-4-8.5-2.3c-2.5,1.2-4.5,3.1-5.5,5.7c-1.2,2.9-0.4,5.8,2.1,7.7c1.2,0.9,2.5,1.6,3.8,2.4c-1.2,1.3-2.4,2.6-3.6,3.9
			c-3-1.5-5.5-3.4-7.2-6.4c-2-3.6-2.1-7.3-0.1-11c1.8-3.4,4.5-5.9,7.8-7.7C281,72.1,286.1,72.9,289.8,76.7z"/>
		<path class="st1" d="M257.1,58.3c4.2-2.9,8.8-2.6,12.6,0.8c3,2.7,4,6,2.8,9.9c-1.4,4.8-4.3,8.8-8.5,11.5
			c-5.8,3.8-13.7,0.6-15.2-6.2c-0.1-0.7-0.1-1.3-0.2-2c0.1-2,0.6-3.9,1.5-5.7C251.9,63.3,254.1,60.4,257.1,58.3z"/>
		<path class="st1" d="M241.3,45.8c1.5-0.8,3.1-1,4.8-0.7c2.9,0.4,6.5,2.5,8,4.7c-0.9,1.4-1.7,2.9-2.6,4.4c-1-0.9-2-1.8-3-2.5
			c-0.7-0.5-1.6-0.8-2.5-1.1c-0.9-0.3-1.8-0.1-2.4,0.7c-0.6,0.8-0.8,1.7-0.1,2.6c0.6,0.9,1.4,1.7,2,2.5c0.5,0.7,1.1,1.3,1.6,2
			c1,1.5,1.4,3.2,0.9,5c-0.6,2.3-1.7,4.2-3.5,5.8c-2.1,1.8-4.6,1.9-7.1,1.1c-2.9-0.9-5.3-2.5-7.4-4.8c1-1.6,1.9-3.2,3-4.9
			c1.2,1.8,2.5,3.2,4.4,4.1c0.4,0.2,0.8,0.3,1.2,0.5c1,0.4,2,0.2,2.7-0.7c0.7-0.9,0.9-2.2,0.2-3.1c-0.7-1-1.6-2-2.4-3
			C235.6,54.4,236.7,48.3,241.3,45.8z"/>
		<path class="st1" d="M215.8,54.5c0.9,0.8,1.7,1.6,2.7,2.2c1.1,0.6,2.3,1.1,3.5,1.4c1,0.3,2,0,2.5-1.1c0.5-1,0.6-2.1-0.2-3
			c-0.7-0.8-1.5-1.5-2.3-2.2c-1.4-1.2-2.7-2.5-3.2-4.4c-1.4-5.4,3-10.6,8.5-10c2.9,0.3,5.5,1.4,7.8,3.3c-0.7,1.6-1.3,3.2-2,4.9
			c-0.6-0.5-1.1-0.9-1.7-1.3c-1.3-0.9-2.8-1.5-4.4-1.6c-0.9,0-1.6,0.3-2.1,1.2c-0.5,0.9-0.4,1.8,0.3,2.4c0.7,0.8,1.5,1.4,2.3,2.1
			c1.4,1.2,2.8,2.4,3.3,4.3c1.8,6.1-3.7,12-9.9,10.7c-2.7-0.6-5.2-1.8-7.4-3.6C214.3,57.8,215,56.2,215.8,54.5z"/>
		<path class="st1" d="M202.3,31.4c2.2,0.4,4.4,0.8,6.7,1.2c1.1,9,2.3,17.9,3.5,27.1c-2.1-0.4-4.1-0.7-6-1c-0.2-2-0.4-3.8-0.6-5.8
			c-2.4-0.4-4.7-0.8-7-1.3c-0.6-0.1-0.9,0.2-1.1,0.7c-0.7,1.4-1.4,2.9-2.2,4.4c-1.8-0.3-3.7-0.6-5.6-1
			C194.1,47.5,198.2,39.5,202.3,31.4z"/>
		<path class="st1" d="M178.9,30c0.2,8.5,0.4,17.1,0.7,26H174c-0.2-8.5-0.5-17.2-0.7-26H178.9z"/>
		<path class="st1" d="M232.8,298.1c-0.9,0.4-1.7,0.8-2.6,1.2c-0.4-1-0.9-1.9-1.3-2.9c1-0.4,1.8-0.8,2.6-1.2
			C231.9,296.2,232.3,297.1,232.8,298.1z"/>
		<path class="st1" d="M154.7,31.8c3.2,5.4,6.3,10.6,9.4,15.9c0.1,0,0.2,0,0.2-0.1c-0.9-5.6-1.8-11.2-2.7-16.9
			c1.6-0.3,3.2-0.5,5-0.8c1.3,8.6,2.6,17.2,4,25.8c-2.2,0.4-4.2,0.7-6.2,1c-0.7,0.1-0.9-0.4-1.1-0.8c-2.8-4.6-5.6-9.2-8.3-13.9
			c-0.3-0.4-0.5-0.8-1-1.2c0.5,2.8,1,5.6,1.4,8.5s0.9,5.6,1.3,8.5c-1.8,0.3-3.3,0.5-5,0.8c-1.3-8.6-2.6-17.1-4-25.8
			C150.1,32.6,152.4,32.2,154.7,31.8z"/>
		<path class="st1" d="M123.4,40.7c3.4,4.9,6.7,9.7,10,14.5c0.1,0,0.1,0,0.2-0.1c-0.5-5.8-1.1-11.6-1.6-17.5c2.6-1,5.2-1.9,7.9-2.9
			c3,8.2,6,16.3,9,24.5c-1.7,0.6-3.3,1.3-5.1,1.9c-2.2-6.1-4.4-12.2-6.7-18.2c-0.1,0-0.1,0-0.2,0c0.6,6.6,1.3,13.3,1.9,20
			c-1.6,0.6-3.1,1.2-4.8,1.8c-3.8-5.5-7.5-10.9-11.3-16.4c-0.1,0-0.1,0.1-0.2,0.1c2.2,6,4.5,11.9,6.8,18c-1.7,0.6-3.3,1.3-5.1,1.9
			c-3-8.2-6-16.3-9.1-24.5C118,42.8,120.6,41.8,123.4,40.7z"/>
		<path class="st1" d="M98,53.9c1.1,1.7,2.1,3.4,3.1,5c1.9,3,3.7,6,5.6,8.9c0.5,0.8,1.2,1.5,1.9,2.1c1.2,1,2.6,1,3.8,0.2
			c1.1-0.8,1.6-2,1.2-3.5c-0.3-1.1-0.8-2.3-1.4-3.3c-2.6-4.4-5.3-8.7-8.1-13.2c1.5-1,3.1-1.9,4.7-3c0.6,1,1.2,2,1.8,2.9
			c2.3,3.7,4.6,7.4,6.8,11.1c1,1.7,1.8,3.4,2,5.4c0.3,3.3-1.1,5.7-3.7,7.6c-3.2,2.3-6.8,2.7-9.7,1c-1.6-1-2.9-2.3-3.9-3.9
			c-3-4.7-5.9-9.5-8.9-14.4C94.8,55.8,96.3,54.9,98,53.9z"/>
		<path class="st1" d="M82.5,65.4c4.5,5.3,9,10.6,13.5,16c2.2-1.9,4.4-3.7,6.6-5.5c1.1,1.4,2.2,2.6,3.4,4C102.3,83,98.7,86,95,89
			c-5.6-6.7-11.2-13.3-16.9-20C79.6,67.8,81,66.6,82.5,65.4z"/>
		<path class="st1" d="M69.1,78.5c8.3,3.7,16.6,7.4,25,11.2c-1.4,1.6-2.7,3.1-4.1,4.7c-1.7-0.8-3.5-1.6-5.2-2.5
			c-1.7,1.9-3.4,3.8-5.1,5.8c1.1,1.7,2.1,3.3,3.1,4.9c-1.3,1.4-2.5,2.8-3.8,4.3c-4.9-7.8-9.6-15.5-14.5-23.2
			C66.1,82,67.5,80.3,69.1,78.5z"/>
		<path class="st1" d="M50.7,102.7c1.4,0.8,2.8,1.5,4.4,2.3c-1.4,2.7-2.8,5.4-4.3,8.1c1.6,0.8,3.1,1.6,4.7,2.5
			c1.4-2.6,2.7-5,4.1-7.6c1.4,0.8,2.8,1.5,4.4,2.3c-1.4,2.6-2.7,5-4.1,7.6c1.8,1,3.4,1.8,5.2,2.8c1.5-2.8,3-5.5,4.5-8.3
			c1.5,0.8,2.9,1.5,4.4,2.3c-2.4,4.4-4.7,8.8-7.1,13.3c-7.7-4.1-15.3-8.2-23-12.3C46.1,111.4,48.3,107.1,50.7,102.7z"/>
		<path class="st1" d="M37.8,130.6c0.2-3.1,1.5-5.8,3.5-8.3c1.6,0.7,3.2,1.4,5,2.2c-1.6,1.4-2.6,3.1-3,5c-0.1,0.4-0.1,0.8-0.2,1.2
			c0,0.9,0.4,1.5,1.1,1.9c0.8,0.4,1.6,0.4,2.3-0.1c0.5-0.4,1-0.9,1.5-1.4c0.4-0.4,0.7-0.9,1.1-1.3c3.4-4.2,7.3-4,11.7-1.2
			c2.4,1.6,3.4,3.9,3.1,6.8c-0.3,3.4-1.8,6.2-4,8.9c-1.8-0.8-3.4-1.6-4.9-2.3c1-1.5,2.1-2.8,2.9-4.3c0.4-0.7,0.6-1.6,0.7-2.4
			c0.1-1.8-1.5-3-3.2-2.3c-0.7,0.3-1.3,0.8-1.9,1.4c-0.6,0.6-1.2,1.3-1.8,2c-2.8,3.1-5.6,3.4-9.2,1.8
			C39,136.6,37.6,134.3,37.8,130.6z"/>
		<path class="st1" d="M32.8,148.3c9-1,18-1.9,27.2-2.9c-0.4,2.1-0.8,4-1.2,6c-1.9,0.2-3.8,0.3-5.8,0.5c-0.5,2.5-1,5-1.5,7.6
			c1.7,0.9,3.4,1.8,5.1,2.7c-0.3,1.8-0.7,3.6-1.1,5.6c-8.1-4.3-16-8.5-24.1-12.8C32,152.8,32.4,150.6,32.8,148.3z"/>
		<path class="st1" d="M29,176.4c-0.1-2.4,0.5-4.7,1.4-7c1.8,0.2,3.6,0.3,5.2,0.4c-0.5,1.7-1.2,3.3-1.4,5c-0.4,2.7,1,4.7,3.4,5.9
			c2.8,1.4,5.7,1.5,8.6,0.6c3.7-1.2,5.3-4.7,4.3-8.7c-0.2-0.9-0.6-1.8-0.9-2.9h5.3c1.8,4.5,1.5,10.9-2.4,14.5
			c-1.8,1.7-3.9,2.6-6.3,3.1c-3.7,0.7-7.3,0.5-10.8-1.1C31.2,184.3,29.2,180.9,29,176.4z"/>
		<path class="st1" d="M45,221.1c-2,0-3.7-1.6-3.7-3.6c0-2,1.7-3.7,3.6-3.7c2,0,3.7,1.6,3.7,3.6C48.7,219.4,47,221.1,45,221.1z"/>
		<path class="st1" d="M53.6,254c0.9-1,1.8-2,2.8-3.1c-1-1.7-1.9-3.4-2.9-5.1c-1.4,0.2-2.6,0.5-4,0.7c-0.5-0.8-1-1.7-1.5-2.7
			c6-1.1,11.9-2.2,17.8-3.2c0.6,1,1.1,2,1.7,3c-4,4.5-8,8.9-12.1,13.4C54.7,255.8,54.2,254.9,53.6,254z"/>
		<path class="st1" d="M65.7,271.4c-1.8-2.3-3.5-4.6-5.3-7c4.6-3.4,9-6.8,13.7-10.3c0.6,0.8,1.2,1.6,1.8,2.4
			c-3.8,2.9-7.6,5.7-11.5,8.6c1.2,1.6,2.3,3.1,3.4,4.6C67.1,270.4,66.5,270.8,65.7,271.4z"/>
		<path class="st1" d="M70.3,269.6c1.6-1.8,3.4-3.2,5.9-3.2c3.5-0.1,5.9,3.8,4.2,6.9c-0.7,1.3-1.8,2.4-2.8,3.8
			c-1.9-2.1-3.5-3.9-5.1-5.7c-2.3,2-1.4,4,2.8,6.3c-0.5,0.4-0.8,0.9-1.3,1.2c-0.3,0.2-0.8,0.3-1.1,0.2
			C68.7,277.6,67.5,272.9,70.3,269.6z"/>
		<path class="st1" d="M73.8,287.5c-0.3-0.4-0.5-0.8-0.7-1.3c0.7-0.6,1.3-1.2,2-1.8c2.5,4.5,4.6,5,7,1.8c-0.8-0.1-1.6-0.2-2.4-0.5
			c-2-0.8-2.9-2.9-2.2-5c1-2.7,2.8-4.6,5.5-5.7c2.6-1.1,5.9,0.4,5.7,4.2c0.4-0.3,0.7-0.6,1.1-0.9c0.6,0.6,1.2,1.1,1.9,1.8
			c-0.7,0.7-1.3,1.4-2,2.1c-2,2.2-4,4.3-6.1,6.5C79.9,292.8,76.2,291.3,73.8,287.5z"/>
		<path class="st1" d="M93.3,297.6c-0.7-0.5-1.3-1-1.9-1.5c0.2-0.5,0.5-0.9,0.7-1.4c-1.5,0.4-2.8,0.2-3.9-0.8
			c-1.5-1.3-1.8-3.2-0.8-4.9c1.1-1.9,3.1-2.6,5.1-1.7c1.2,0.6,2.3,1.4,3.5,2.1c1.7-2.1,0.7-3.4-3.7-4.6c0.5-0.7,1-1.4,1.5-2.1
			c2,0.4,3.7,1.3,4.9,2.8c0.9,1.1,1.1,2.5,0.4,3.8c-0.5,1-1.2,2-1.9,2.9C95.9,294.1,94.6,295.8,93.3,297.6z"/>
		<path class="st1" d="M97.8,296.8c0.6-2.3,1.8-4.1,3.7-5.4c2.5-1.7,5.6-1,7.7,1.9c-0.5,0.7-1,1.3-1.6,1.9c-0.1-0.1-0.3-0.2-0.3-0.2
			c-1.8-2.4-4-1.6-5.3,0.1c-0.5,0.7-0.9,1.4-1.2,2.2c-0.6,1.7,0.1,3.1,1.8,3.7c0.4,0.1,0.8,0.2,1.3,0.4c-0.2,0.4-0.3,0.8-0.5,1.1
			c-0.2,0.4-0.5,0.7-0.7,1.1C99.2,303.2,96.9,300,97.8,296.8z"/>
		<path class="st1" d="M111,307.2c-0.9,0.9-1.8,1.8-2.8,2.6c-2.3,1.8-4,1.7-6.1-0.5c0.4-0.6,0.8-1.3,1.3-2c0.3,0.2,0.6,0.4,0.8,0.6
			c1.4,0.9,2.8,0.4,3.1-1.3c0.7-3.6,1.4-7.3,2.2-10.9c0.1-0.7,0.3-1.4,0.5-2.2c1,0.5,1.8,1,2.8,1.5c-0.6,2.9-1.3,5.8-2,9
			c2.2-2.3,4.3-4.3,6.4-6.5c1,0.6,1.8,1,2.8,1.5C116.8,301.7,113.9,304.4,111,307.2z"/>
		<path class="st1" d="M130.8,315.4c-3.4,1.8-7.7-0.6-8-4.4c-0.2-2.3,0.5-4.3,2-6.1c1.7-1.9,4-2.5,6.3-1.6c2.3,0.9,3.6,2.8,3.5,5.9
			C134.4,311.5,133.5,314,130.8,315.4z"/>
		<path class="st1" d="M145.4,304.8c-0.7-0.1-1.5-0.6-2-0.3c-1,0.5-1.1,1.7-1.3,2.8c0.8,0.3,1.4,0.5,2.2,0.8
			c-0.2,0.8-0.4,1.5-0.7,2.3c-0.8-0.2-1.6-0.4-2.4-0.6c-1,3.2-1.9,6.4-2.9,9.7c-1-0.3-1.8-0.5-2.8-0.8c1-3.3,1.9-6.4,2.8-9.7
			c-0.7-0.2-1.3-0.5-2-0.7c0.2-0.7,0.4-1.4,0.7-2.3c0.7,0.2,1.3,0.3,2,0.4c0.2-0.5,0.3-1,0.5-1.5c1.1-3.5,3.3-4.3,6.5-2.3
			C146,303.3,145.7,304.1,145.4,304.8z"/>
		<path class="st1" d="M154.1,318.1c0.9,2.2,2.6,3,5.4,3c0.5,0,0.9-0.1,1.5-0.2c-0.1,1-0.2,1.8-0.3,2.7c-4.1,1-10.2-1-10.3-7.2
			c0-2,0.3-4,1.2-5.8c2.3-5.3,8.5-5.3,11.7-3c-0.1,0.4-0.2,0.9-0.3,1.3c-0.1,0.5-0.2,0.9-0.3,1.2c-1-0.4-2-0.8-2.9-1.1
			c-1.5-0.4-2.9,0.1-4,1.1C153.8,311.9,153,315.7,154.1,318.1z"/>
		<path class="st1" d="M172.5,324.9h-2.5c-0.1-0.5-0.2-0.9-0.2-1.3c-0.3,0.2-0.5,0.3-0.8,0.5c-1.3,1-2.7,1.1-4.2,0.4
			c-1.5-0.8-2.2-2.1-2-3.7c0.2-1.6,0.8-3,2.5-3.4c1.5-0.3,3.1-0.3,4.8-0.5c0.3-1.4-0.2-2.2-1.7-2.5c-1.4-0.3-2.6,0.3-3.9,0.9
			c0-0.8-0.1-1.6,0-2.4c0-0.2,0.4-0.5,0.7-0.6c1.6-0.5,3.2-0.6,4.8-0.2c1.6,0.5,2.7,1.8,2.7,3.7
			C172.9,318.8,172.7,321.8,172.5,324.9z"/>
		<path class="st1" d="M182.3,315.3c-0.3,0-0.5,0-0.7,0c-1.3-0.1-2,0.3-2.3,1.6c-0.3,1.2-0.4,2.3-0.4,3.5c-0.1,1.5,0,2.9,0,4.5H176
			v-12.5h2.5c0,0.6,0.1,1.2,0.1,1.9c0.5-0.6,0.9-1.3,1.5-1.7c0.6-0.4,1.4-0.5,2.2-0.8V315.3z"/>
		<path class="st1" d="M183.8,306.9c1-0.1,1.9-0.1,2.9-0.2c0.1,1,0.2,2,0.2,3.2c-1,0.1-1.9,0.1-2.9,0.2
			C183.9,309,183.9,308,183.8,306.9z"/>
		<path class="st1" d="M184.8,324.9c-0.2-4.2-0.5-8.4-0.7-12.7h2.9c0.2,4.1,0.4,8.2,0.7,12.4C186.7,324.8,185.9,324.8,184.8,324.9z"
			/>
		<path class="st1" d="M198.3,323.6c-0.2-1.7-0.4-3.3-0.6-4.9c-0.2-1.2-0.3-2.3-0.5-3.4c-0.2-0.8-0.6-1.6-1.6-1.6
			c-1,0-1.8,0.5-1.9,1.4c-0.2,1.3-0.2,2.8-0.1,4.1c0.1,1.6,0.4,3.2,0.6,4.9c-1,0.1-1.9,0.2-2.9,0.4c-0.5-4.2-1-8.3-1.6-12.5
			c0.9-0.1,1.7-0.2,2.6-0.4c0.1,0.4,0.2,0.8,0.3,1.2c0.6-0.5,1-1,1.6-1.4c2.3-1.4,4.8-0.5,5.6,2c0.4,1.1,0.5,2.3,0.6,3.5
			c0.3,2,0.5,4,0.8,6.3C200.2,323.5,199.3,323.5,198.3,323.6z"/>
		<path class="st1" d="M209,327.1c-0.8,0-1.6-0.1-2.5-0.1c-0.1-1-0.2-1.8-0.4-2.8c1.9,0.3,3.7,0.8,5.1-0.8c1-1.1,0.6-2.5,0.4-4
			c-0.3,0.3-0.5,0.5-0.6,0.8c-1.7,2.2-4.8,2.3-6.5,0c-1.7-2.4-2.4-5.1-1.6-8c0.7-3,3.6-4.1,6.3-2.6c0.1,0.1,0.2,0.1,0.4,0.2
			c0-0.4-0.1-0.7-0.2-1.3c0.9-0.2,1.7-0.4,2.7-0.6c0.7,3.1,1.4,6.1,2.1,9.1c0.2,0.9,0.4,1.9,0.6,2.8
			C215.6,324.1,213.4,326.9,209,327.1z"/>
		<path class="st1" d="M229.8,315.8c-1.5,0.9-3.2,1.3-5.2,1.3c-0.3-0.9-0.5-1.8-0.9-2.9c0.9,0,1.7,0.1,2.5,0c0.7-0.1,1.4-0.4,2-0.8
			c0.7-0.4,1-1.1,0.9-2c-0.2-0.9-0.7-1.5-1.6-1.6c-1.1-0.2-2.1-0.3-3.2-0.4c-2.5-0.3-4-1.8-4.4-4.6c-0.4-2.2,0.7-4.1,2.9-5
			c1.2-0.5,2.6-0.8,4-1.2c0.3,1.2,0.5,2,0.7,2.8c-1.1,0.2-2.1,0.3-3.1,0.7c-1.3,0.5-1.8,1.5-1.3,2.8c0.3,0.7,0.8,1.1,1.5,1.2
			c1.1,0.2,2.2,0.3,3.3,0.4c2.3,0.3,3.8,1.8,4.3,4.4C232.5,312.8,231.7,314.7,229.8,315.8z"/>
		<path class="st1" d="M236.3,312.9c-1.8-3.9-3.4-7.6-5.2-11.5c0.9-0.4,1.7-0.8,2.6-1.2c1.7,3.8,3.4,7.6,5.2,11.5
			C238,312.1,237.2,312.5,236.3,312.9z"/>
		<path class="st1" d="M248.7,306.6c-0.7-1.3-1.4-2.5-2.1-3.7c-0.7-1.1-1.3-2.3-2-3.4c-0.7-1.1-1.5-1.4-2.3-1.2
			c-0.9,0.3-1.5,1.1-1.3,2.4c0.2,0.9,0.5,1.8,0.9,2.7c0.9,1.7,1.9,3.4,2.9,5.2c-0.8,0.5-1.6,0.9-2.5,1.4c-2.1-3.7-4.1-7.3-6.1-11
			c0.8-0.5,1.5-0.9,2.3-1.3c0.3,0.3,0.5,0.7,0.9,1.1c0.4-1.4,1-2.5,2.3-3.2c1.4-0.7,2.8-0.6,4,0.4c0.5,0.5,1,1,1.3,1.5
			c1.4,2.5,2.8,4.9,4.2,7.5C250.4,305.7,249.6,306.1,248.7,306.6z"/>
		<path class="st1" d="M252.8,301c-2.3-1.6-3.7-3.9-3.9-6.8c-0.1-2.5,1.9-4.8,4.9-5.3c0.4,0.7,0.7,1.4,1.1,2.1
			c-0.5,0.2-0.9,0.3-1.3,0.5c-1.4,0.7-2.1,1.8-1.5,3.3c0.4,1,1,2.1,1.7,3c1.4,1.6,3.1,1.5,4.5-0.1c0.2-0.2,0.4-0.5,0.7-0.8
			c0.3,0.4,0.5,0.7,0.8,1c0.3,0.4,0.5,0.7,0.7,1C259,301.8,255.4,302.8,252.8,301z"/>
		<path class="st1" d="M259.9,294.6c-1.9-1.6-3.2-3.6-3.2-6.2c0-3.5,3.8-5.8,6.9-4.2c1.2,0.6,2.7,2,3.6,3.5c-2,1.5-3.9,3-5.8,4.5
			c2.1,2.4,4.1,1.6,6.4-2.5c0.5,0.7,1,1.3,1.5,1.9C268.2,296,263.2,297.5,259.9,294.6z"/>
		<path class="st1" d="M280.4,282.8c-3-3-5.9-6-9-9c-0.1,1.1-0.1,2.1-0.2,3.2c-0.9-0.2-1.7-0.3-2.4-0.5c0-1.8-0.2-3.6,0.1-5.4
			c0.1-0.8,1-1.6,1.6-2.3c4.1,4.1,8.1,8.1,12,12C281.9,281.2,281.3,281.9,280.4,282.8z"/>
		<path class="st1" d="M285.6,275.5c-2.8,0-4.8-2.5-4.7-5.8c-0.9,0-1.8,0.1-2.6,0c-1.8-0.4-3.1-1.5-3.6-3.3c-0.5-2,0.5-3.6,1.9-4.9
			c1.3-1.2,2.9-1.9,4.7-1c2,1,2.7,2.7,2.5,5c2-0.5,3.8-0.5,5.4,1c1,0.9,1.7,2,1.8,3.4C291.1,272.4,288.1,275.5,285.6,275.5z"/>
		<path class="st1" d="M294,265.6c-1.6,0.4-3-0.3-4.2-1.3c-1.3-1-1.5-2.5-1.6-4.1c-1.9,0.6-3.6,0.5-5-0.7c-1.5-1.3-2-3.1-1.2-5
			c0.3-0.7,0.7-1.3,1.2-1.9c1.2-1.3,2.6-2.2,4.4-1.6c1.9,0.6,2.9,2,3.3,3.9c0,0.2,0,0.5,0,0.8c3.8-0.9,6.7,0.5,7.4,3.4
			C299,261.5,296.8,265,294,265.6z"/>
		<path class="st1" d="M303.8,253c-0.6,1.1-1.4,2.1-2.2,3.2c-1-0.6-1.8-1.1-2.7-1.6c0.7-0.8,1.5-1.5,2.1-2.3c1-1.6,0.6-3.3-1-4.2
			c-1.2-0.7-2.5-0.6-3.3,0.5c-0.8,1-1.3,2.2-2,3.4c-1.1-0.7-2.4-1.4-3.7-2.2c-1.3-0.8-2.5-1.5-3.9-2.4c1.4-2.5,2.8-4.9,4.3-7.5
			c0.8,0.5,1.5,0.9,2.2,1.4c-0.5,0.9-1,1.7-1.4,2.5c-0.4,0.8-0.9,1.6-1.4,2.5c1,0.6,1.9,1.2,2.9,1.8c0.2-0.3,0.4-0.6,0.5-0.9
			c1.1-2.1,2.9-3.1,5.2-2.5C303.6,245.6,305.8,249.3,303.8,253z"/>
		<path class="st1" d="M309.6,221.2c-1.9,0-3.5-1.7-3.6-3.7c0-1.9,1.7-3.6,3.7-3.7c2,0,3.7,1.7,3.7,3.6
			C313.3,219.5,311.6,221.2,309.6,221.2z"/>
		<path class="st1" d="M330.3,186.2v5h-26v-7c5.8-2.3,11.5-4.6,17.2-6.9c0-0.1,0-0.2,0-0.3h-17v-5h26c0,1.5,0,2.8,0,4.2
			c0,3,0,3-2.8,4.1c-4.6,1.8-9.3,3.6-13.9,5.4c-0.2,0.1-0.4,0.2-0.5,0.5H330.3z"/>
		<path class="st2" d="M267.3,65.8c-0.1,0.5-0.1,1-0.3,1.5c-1.1,3.5-3.1,6.3-6.2,8.4c-1.3,0.9-2.8,1.3-4.3,0.6c-1.8-0.8-2.6-2.7-2-5
			c1.1-3.7,3.2-6.7,6.4-8.8c2.5-1.6,5.4-0.6,6.1,2C267.3,65,267.3,65.4,267.3,65.8z"/>
		<path class="st2" d="M313.1,162.3c-0.8-0.2-1.9-0.3-3-0.6c-1.5-0.4-2.5-1.4-2.8-3c-0.3-1.6,0.3-2.8,1.5-3.8c1.8-1.5,4-2.1,6.3-2.4
			c1.6-0.2,3.4-0.2,5,0c2.4,0.3,3.7,2,3.6,4.2c-0.1,1.2-0.7,2-1.5,2.7c-1.7,1.4-3.8,2-5.9,2.3C315.3,162.2,314.3,162.2,313.1,162.3z
			"/>
		<path class="st2" d="M71.4,85c2.9,1.5,5.8,3,8.8,4.6c-1.1,1.3-2.2,2.5-3.3,3.9c-1.9-2.8-3.7-5.5-5.6-8.2
			C71.3,85.1,71.3,85,71.4,85z"/>
		<path class="st2" d="M205.4,47.7c-1.8-0.3-3.4-0.6-5.1-0.9c1.4-3.1,2.8-6.1,4.1-9c0.1,0,0.2,0,0.3,0
			C204.9,41,205.2,44.3,205.4,47.7z"/>
		<path class="st2" d="M297.4,113.6c-0.9-1.6-1.8-3-2.7-4.5c3.3-0.9,6.5-1.9,9.4-2.7C302.1,108.6,299.8,111.1,297.4,113.6z"/>
		<path class="st2" d="M47.9,152.2c-0.3,1.7-0.6,3.3-1,5.1c-3.1-1.5-6.1-3-9.1-4.4c0-0.1,0-0.2,0-0.2
			C41.2,152.5,44.5,152.4,47.9,152.2z"/>
		<path class="st2" d="M205.7,314.3c0.1-0.6,0.2-1.2,0.4-1.7c0.6-1.4,2.3-1.7,3.3-0.5c1.3,1.5,1.7,3.3,1.3,5.2
			c-0.2,0.9-0.7,1.4-1.6,1.6c-0.9,0.2-1.5-0.2-2.1-0.8C206.2,317,205.8,315.7,205.7,314.3z"/>
		<path class="st2" d="M82.5,284.4c-1.3,0-2.1-0.9-2-2.2c0.1-1.8,2.3-4.2,4.1-4.5c1.2-0.2,2.4,0.7,2.5,1.9
			C87.2,281.5,84.4,284.4,82.5,284.4z"/>
		<path class="st2" d="M290.8,259.7c0-0.9,0.9-1.5,2.3-1.5c1.4,0,2.6,1.1,2.6,2.3c0,1.1-1.1,2.1-2.2,2.1
			C292,262.5,290.8,261.2,290.8,259.7z"/>
		<path class="st2" d="M286.7,257.8c-1.1,0-2.1-1-2.1-2c0-1,1-2,1.8-2c1.2,0,2.5,1.4,2.5,2.6C288.9,257.1,287.8,257.8,286.7,257.8z"
			/>
		<path class="st2" d="M283.4,268.6c1.7-0.9,3.1-0.8,4.1,0.3c0.7,0.8,0.7,1.7,0.2,2.5c-0.6,0.8-1.7,1.2-2.6,0.8
			C283.7,271.8,283.2,270.6,283.4,268.6z"/>
		<path class="st2" d="M281.6,266.7c-0.9,0.1-1.8,0.3-2.7,0.2c-0.9-0.1-1.4-0.8-1.4-1.7c-0.1-0.9,0.3-1.6,1.1-2
			c0.7-0.4,1.5-0.2,2.1,0.3C281.7,264.2,281.8,265.2,281.6,266.7z"/>
		<path class="st2" d="M63.2,244.1c-1.7,1.4-3.3,2.8-5,4.2c-0.4-0.8-1.1-1.9-1.8-3.2c2.3-0.5,4.4-0.9,6.5-1.4
			C63,243.9,63.1,244,63.2,244.1z"/>
		<path class="st2" d="M131.7,308.5c-0.1,1.3-0.6,2.7-1.7,3.9c-0.7,0.8-1.6,1.1-2.7,0.7c-1-0.4-1.6-1.2-1.5-2.4
			c0.1-1.5,0.5-3,1.6-4.2c0.8-0.9,1.8-1.2,2.8-0.8C131.1,306.1,131.7,306.9,131.7,308.5z"/>
		<path class="st2" d="M94.6,291.3c-0.9,1.2-1.8,2-3.3,1.8c-1.2-0.2-1.9-1.2-1.7-2.2c0.3-1,1.4-1.6,2.5-1.1
			C93,290.2,93.8,290.7,94.6,291.3z"/>
		<path class="st2" d="M263.6,287.6c-1.2,0.9-2.4,1.8-3.5,2.7c-1.1-1.5-1-2.9,0.2-3.7C261.3,285.9,262.6,286.2,263.6,287.6z"/>
		<path class="st2" d="M170,318.9c0.1,1.8-0.5,3-1.7,3.4c-1,0.4-2.2,0-2.5-0.8c-0.4-1,0.2-2.1,1.3-2.4C168,319,169,319,170,318.9z"
			/>
		<path class="st2" d="M169.9,323.5C169.9,323.5,169.9,323.4,169.9,323.5C169.9,323.5,169.9,323.5,169.9,323.5L169.9,323.5z"/>
		<path class="st2" d="M77.2,273.3c-1-1.2-2-2.3-3-3.5c1.4-1.2,2.9-1.2,3.8-0.1C78.9,270.8,78.6,272,77.2,273.3z"/>
	</g>
	<g>
		<linearGradient id="SVGID_1_" gradientUnits="userSpaceOnUse" x1="179.6167" y1="295.97" x2="179.6167" y2="65.8316">
			<stop  offset="0" style="stop-color:#2E2E2F"/>
			<stop  offset="0.1317" style="stop-color:#5D5E61"/>
			<stop  offset="0.369" style="stop-color:#939597"/>
			<stop  offset="0.5831" style="stop-color:#BFC1C3"/>
			<stop  offset="0.7662" style="stop-color:#E0E1E2"/>
			<stop  offset="0.9112" style="stop-color:#F4F5F5"/>
			<stop  offset="1" style="stop-color:#FFFFFF"/>
		</linearGradient>
		<path class="st3" d="M189.5,66.3c8.4,0.7,16.6,2.3,24.6,4.9c10.5,3.3,20.4,8.1,29.5,14.3c9.8,6.7,18.5,14.8,25.8,24.2
			c8.4,10.7,14.5,22.6,18.9,35.5c2.5,7.3,4.2,14.8,5.1,22.5c0.7,6,1.1,12,0.7,18c-0.3,4.5-0.5,9-1,13.5c0,0.4,0,0.8-0.2,1.1
			c-0.1,0.2-0.1,0.6-0.1,0.7c0,0.2,0,0.3-0.1,0.4c0,0,0,0,0,0.1c-9.6,53.7-56.6,94.5-113,94.5C123,296,76,255,66.5,201.1
			c0.2-0.4-0.3-1.8-0.4-2.2c-1.4-7.7-1.1-15.6-0.9-23.4c0.3-8,1.5-15.8,3.6-23.5c3.8-14.1,9.8-27.1,18.3-38.9
			c7-9.7,15.4-18.1,25.1-25.3c11.4-8.4,23.9-14.4,37.6-18.1c6.9-1.9,13.9-3,21-3.6C177.1,65.7,183.3,65.7,189.5,66.3z"/>
		<path class="st0" d="M99.2,201.3l1.4,42.9c0,6.3,2.6,8,5.7,10l68.7,32.5c4.2,1.4,4.9,1.4,8.4,0.1l68-33.1
			c3.9-2.2,9.7-4.3,9.7-15.5v-36.8h0c0-0.2,0-0.4,0-0.6c0-5.2,0-10.3-0.1-15.5c-0.1-26.1-0.2-52.2-0.3-78.4v-5.1H99.4
			C99.3,135,99.3,168.2,99.2,201.3z"/>
		<linearGradient id="SVGID_2_" gradientUnits="userSpaceOnUse" x1="107.17" y1="229.2414" x2="177.65" y2="229.2414">
			<stop  offset="0" style="stop-color:#961B2E"/>
			<stop  offset="1" style="stop-color:#B3797D"/>
		</linearGradient>
		<path class="st4" d="M177.7,180.4l-70.5-0.2v1.4c0,19.9,0,39.8,0,59.6c0,2,0.7,3.6,2.2,4.6c1.9,1.3,4,2.4,6,3.4
			c12.3,5.7,61.8,28.5,62.2,29V180.4z"/>
		<linearGradient id="SVGID_3_" gradientUnits="userSpaceOnUse" x1="178.1" y1="145.49" x2="251.37" y2="145.49">
			<stop  offset="0" style="stop-color:#B3797D"/>
			<stop  offset="1" style="stop-color:#961B2E"/>
		</linearGradient>
		<path class="st5" d="M178.1,180.2h73.3v-69.5h-73.1c0,0.4-0.1,0.7-0.1,1V180.2z"/>
		<path class="st1" d="M255.3,238.7c0.1,5.3-2.4,8.9-6.8,11.2c-5.5,2.8-11.2,5.5-16.8,8.1c-4.4,2.1-8.9,4-13.3,6
			c-0.2,0.1-0.4,0.1-0.8,0.2v-47.6h37.7v1.3C255.3,224.8,255.1,231.7,255.3,238.7z"/>
		<path class="st1" d="M204.7,150.8v-5.1c1,0,1.9-0.1,2.7,0c0.3,0,0.8,0.4,0.9,0.8c0.4,0.7,1,1,1.8,0.9c0.8-0.1,1.5,0,2.2,0
			c0.9-0.5,0.9-2.1,2.5-1.9c1.3,0.2,2,0.7,2.4,1.9h3.9c0.4-2.6,2.4-1.7,4.1-1.7v5.5c2,0,3.6,0.5,3.9,2.7h3.6
			c0.3-0.7,0.6-1.5,0.9-2.3h3.2v17.2c1.1,0.3,2.1,0.5,3.2,0.8v2.6h-49.8c0.3-0.9,0.3-2,0.8-2.5c0.6-0.5,1.7-0.6,2.6-0.8v-16.2
			c0.5-0.2,1-0.5,1.5-0.5c0.3,0,0.9,0.1,1,0.4c0.7,1.4,1.9,1.7,3.3,1.5c0.5-0.1,1,0,1.7,0C200.9,151.1,203.2,151.6,204.7,150.8z"/>
		<path class="st1" d="M203.6,118.3c0.8-1.1,1.5-2.3,2.4-3.5c0.7,0.3,1.4,0.6,2,1c1.4,1,2.7,1.2,4.2,0c0.2-1.2,0.3-2.5,0.5-3.9h4.2
			c0.2,1.3,0.3,2.5,0.5,3.9c0.6,0.3,1.2,0.6,1.9,0.8c0.3,0.1,0.8-0.1,1-0.3c0.8-0.6,1.6-1.3,2.6-2c0.9,1.1,1.8,2.1,2.8,3.2
			c-0.6,0.8-1.4,1.9-2.2,2.9c0.4,0.8,0.7,1.6,1.1,2.4c1.2,0.2,2.5,0.4,3.8,0.6v4.1c-1.2,0.2-2.4,0.3-3.7,0.5
			c-0.3,0.7-0.6,1.4-0.9,2.1c0.8,1.1,1.6,2.2,2.4,3.4c-1,0.9-2,1.8-3,2.8c-1-0.8-2-1.6-3-2.4c-0.8,0.4-1.5,0.7-2.4,1.1
			c-0.2,1.4-0.5,2.8-0.7,4.3H213c-0.1-1-0.3-2-0.4-3c0-0.9-0.3-1.4-1.2-1.6c-0.4-0.1-0.8-0.3-1.4-0.5c-1,0.8-2.1,1.6-3.4,2.6
			c-1-1.1-1.9-2-3-3.1c0.8-1.1,1.7-2.2,2.5-3.3c0-0.1,0-0.2,0-0.3c-0.3-1.4-1.2-2-2.6-2c-0.7,0-1.5-0.2-2.4-0.3v-4.3
			c1-0.1,1.9-0.4,2.8-0.4c1.1,0,1.6-0.5,1.8-1.5c0.1-0.3,0.2-0.6,0.4-1C205.4,119.9,204.6,119.2,203.6,118.3z"/>
		<path class="st1" d="M142.1,107.5h113.1v107.9h-37.5v-35.2h33.7v-69.5h-73.1c0,0.4-0.1,0.7-0.1,1v30.1c0,0.6,0.3,1.3-0.1,1.9
			c-0.5-0.1-1.1-0.2-1.6-0.2c-10.9,0-21.8,0-32.8,0h-1.5V107.5z"/>
		<path class="st1" d="M142,144.5h36.1v34.1c0,1.5,0,1.5,1.5,1.5c11.6,0,23.1,0,34.7,0.1h2.2v35.2h-38.7c0-0.4-0.1-0.8-0.1-1.3v-32
			c0-1.7,0-1.7-1.7-1.7c-10.9,0-21.8,0-32.8-0.1H142V144.5z"/>
		<path class="st1" d="M158.9,223.7c-0.1,0.2-0.2,0.5-0.4,0.9c-0.5-0.3-1-0.5-1.4-0.7c0,0.1,0,0.2,0,0.2c1.3,2,1.3,2.4-0.3,4.3
			c-0.1,0.2-0.2,0.3-0.5,0.7c-1.4-1-2.7-2-3.9-2.9c-0.1,0.1-0.2,0.2-0.3,0.3c0.5,0.3,1,0.7,1.4,1c2.5,1.7,2.7,2.8,0.8,5.3
			c-0.5,0.6-1,1.1-1.7,1.5c-1,0.7-1.7,0.4-2.2-0.7c-0.4-0.9-0.8-1.9-1.2-2.8c0.3,1.2,0.7,2.4,1,3.6c0.1,0.4,0.2,0.9,0,1.1
			c-0.2,0.4-0.7,0.7-1.1,0.8c-0.2,0-0.6-0.4-0.8-0.8c-0.4-0.9-0.6-1.9-0.9-2.8c-0.1-0.3-0.2-0.5-0.3-0.7c-0.1,0-0.1,0-0.2,0.1
			c0.1,0.8,0.2,1.7,0.4,2.5c0.2,0.8,0.5,1.6,0.8,2.4c-0.8,1-1.5,0.3-2.3-0.2c0.5,0.9,1,1.6,1.4,2.3c0.2,0.3,0.4,0.7,0.5,1.1
			c0.5,1.5,0.3,2.4-0.9,2.9c-1.4,0.7-2.4,0.4-3.2-0.9c-0.1,0.6-0.2,1.2-0.3,1.8c-0.2,0.6-0.4,1.5-1.2,1.4c-0.5,0-1.2-0.4-1.5-0.9
			c-0.6-0.7-1-1.5-1.5-2.4c-0.3,0.5-0.5,0.9-0.8,1.3c-0.5,0.6-1.1,0.8-1.8,0.5c-0.7-0.3-1-1-0.7-1.7c0.3-0.9,0.7-1.8,1.1-2.7
			c-0.5,0.4-1.1,0.8-1.6,1.2c-0.4,0.3-0.8,0.5-1.2,0.7c-0.7-0.7-1-1.5-0.5-2.2c0.6-1,1.3-1.9,2.1-2.7c0.6-0.7,1.4-1.2,1.4-2.3
			c-0.5,0.5-0.9,1-1.5,1.7c-1.7-2-0.8-4.3-1.2-6.4c-0.1,0.7-0.2,1.4-0.3,2.1c-0.1,0.6,0,1.3-0.1,1.9c-0.1,0.8,0.1,1.9-1.2,2.1
			c-0.9,0.1-2.8-0.9-2.9-1.8c-0.1-0.7,0.1-1.4,0.2-2.1c0.3-1.7,0.6-3.3,0.8-5c-1.5,1.9-1.3,4.4-1.8,6.6c-2.2-1.5-3-3.9-2.1-6.3
			c0.5-1.3,1-2.7,1.5-4c-0.1-0.1-0.3-0.1-0.4-0.2c-0.4,0.9-0.8,1.8-1.2,2.7c-0.3,0.7-0.5,1.5-0.8,2.1c-0.4,0.8-0.8,0.8-1.3,0.1
			c-1.1-1.4-1.1-3.3,0-4.9c0.4-0.6,0.9-1.1,1.3-1.7c0.2-0.4,0.4-0.8,0.4-1.3c-1.6,1-1.8,3.1-3.4,4.4c-0.2-0.4-0.5-0.8-0.6-1.2
			c-0.3-1.5-0.6-3-0.7-4.5c-0.2-1.5,0.5-2.5,1.9-3c0.6-0.2,1.1-0.4,1.7-0.7c-1.7-0.6-2.7,1.1-4.5,1.4c0.2-0.7,0.2-1.4,0.5-1.9
			c1.2-2.1,3-3.7,5.1-5c1.2-0.7,2.6,0.1,2.8,1.5c0.2,1.1,0.3,2.3,0.6,3.4c0.5,2.5,1.9,4.4,3.9,5.9c1.3,1,2.6,1.9,4.1,3
			c0.6-0.7,1.4-1.3,2-2.1c0.2-0.3,0.3-1.1,0.2-1.1c-0.5-0.2-1-0.3-1.5-0.2c-0.4,0-0.7,0.4-1.2,0.7v-2.6c1.1,0.1,1.7-0.4,1.9-1.4
			c0.2-0.8,0.9-1,1.6-1c0.7,0,1.4,0.1,2,0.3c2.1,0.6,2.6,1.5,2.2,3.6c-0.1,0.6-0.2,1.3-0.4,1.9c-0.3,0.8-0.2,1.4,0.6,1.9
			c1,0.6,1.6,0.6,2.4-0.1c2.1-1.7,3.5-3.9,4.4-6.4c0.6-1.7,1.1-3.4,1.7-5.1c0.2-0.5,0.4-1,0.6-1.4c0.7-1.3,1.7-1.6,3-1
			c1.6,0.7,3,3.2,3,5.1c-0.8,0-1.6,0.1-2.4,0.1c0,0,0,0.1,0,0.2c0.3,0.1,0.7,0.2,1,0.3c1.5,0.2,1.7,0.4,2,1.9c0,0.2,0.1,0.4,0.1,0.6
			c0,0,0,0,0,0c0,0,0,0,0,0c0,0.1,0,0.1,0.1,0.2c0,0,0-0.1-0.1-0.2c-0.3,1-0.5,2-0.8,3.2c-0.6-0.3-1-0.6-1.4-0.7
			c-0.4-0.1-0.8-0.2-1.1-0.2C160,220.8,160,221,158.9,223.7z"/>
		<path class="st1" d="M149.8,208.5c-0.9,0.5-1.6,0.9-2.3,1.3c-1.5,0.8-3.1,1.7-4.6,2.5c-0.4,0.2-1,0.2-1.4,0.1
			c-3.3-1.6-6.6-3.2-9.9-4.8c-1.1-0.5-1.6-1.4-1.6-2.7c0.1-4.8,0-9.7,0.2-14.7C136.7,196.3,143.2,202.3,149.8,208.5z"/>
		<path class="st1" d="M133.8,185.2c0-0.1,0.1-0.2,0.1-0.3h19.8v18.8c-0.1,0.1-0.2,0.1-0.2,0.2C146.9,197.7,140.4,191.4,133.8,185.2
			z"/>
		<rect x="105.1" y="107.6" class="st1" width="35.8" height="35.8"/>
		<path class="st1" d="M105,229.6c0-28,0-55.9,0-83.9v-1.2h35.9v35.6h-33.7v1.4c0,19.9,0,39.8,0,59.6c0,2,0.7,3.6,2.2,4.6
			c1.9,1.3,4,2.4,6,3.4c12.3,5.7,61.8,28.5,62.2,28.8v-61.6h38.8c0,0.4,0.1,0.7,0.1,1.1c0,15.4,0,30.7,0,46.1c0,0.9-0.3,1.2-1.1,1.6
			c-11.6,5.7-23.2,11.4-34.8,17.2c-0.8,0.4-1.4,0.5-2.2,0c-8.6-4.2-17.1-8.4-25.8-12.5c-11.7-5.6-23.5-11-35.3-16.5
			c-2.2-1-4.3-2.1-6.5-3c-4-1.7-5.7-4.9-5.8-9C104.9,237.5,105,233.6,105,229.6z"/>
		<path class="st6" d="M136,162.8c0.1,7.2-5.9,13.3-13.2,13.3c-7.3,0-13.3-6-13.3-13.2c0-7.3,5.9-13.3,13.2-13.3
			C130.2,149.6,135.9,155.5,136,162.8z M122.4,151.5c-5.9,0-11.2,5.3-10.9,11.3c3.6,0,7.2,0,10.9,0
			C122.4,159,122.4,155.3,122.4,151.5z M122.9,174.1c6.1,0.1,11.2-5.3,11.1-10.7c-3.7,0-7.4,0-11.1,0
			C122.9,167.1,122.9,170.6,122.9,174.1z"/>
		<path class="st6" d="M199,232.7c-1.1,0.1-2,0.1-3.1,0.2c-0.5,1-1.1,2.1-1.6,3.2c-2,4.2-3.9,8.4-5.8,12.6c-0.4,0.8-1,1.5-1.5,2.2
			c-0.2-0.1-0.3-0.1-0.5-0.2c0.1-0.5,0.1-1,0.3-1.5c1.7-4.2,3.5-8.5,5.2-12.7c0.4-1.1,0.9-2.1,1.4-3.2c0.5-1,0.8-2,0.3-3.2
			c-0.6-1.4,0.2-3.1,1.5-3.9c0.3-0.2,0.7-0.4,1.2-0.6c0-1-0.1-2,0-2.9c0.1-0.4,0.6-0.7,0.9-1.1c0.3,0.4,0.7,0.7,0.8,1.1
			c0.1,0.9,0.1,1.9,0.2,3c0.2,0.1,0.4,0.3,0.7,0.5c1.5,1,2.2,2.5,1.7,4.2c-0.2,0.7-0.1,1.3,0.2,1.9c2.7,5.7,5.4,11.5,8.1,17.2
			c0.2,0.4,0.3,0.8,0.5,1.2c-0.7,0.3-1.1-0.1-1.4-0.5c-0.8-1.1-1.5-2.2-2.1-3.5c-1.8-3.6-3.5-7.3-5.2-10.9
			C200.3,234.7,199.6,233.7,199,232.7z M196.6,227c-1.5,0.9-1.7,1.5-1.4,2.9c0.5,0,1-0.1,1.4-0.1C196.6,228.8,196.6,228,196.6,227z
			 M198.1,229.9c0.6-0.1,1-0.2,1.4-0.2c0.1-1.1-0.3-1.9-1.4-2.5C198.1,228.1,198.1,228.9,198.1,229.9z"/>
		<path class="st6" d="M232.9,189.9c0.3-3.3,1-4.3,2.9-4.3c2,0,2.7,0.9,3.1,4.4c1.2,0,2.3,0,3.6,0c0.1-0.7,0.2-1.3,0.3-2
			c0.3-1.3,1-2.1,2.2-2.2c1.2-0.1,2.2,0.6,2.6,1.9c0.3,1,0.4,2,0.5,3.1c0.1,3.8,0.1,7.6,0.1,11.4c-0.1,6.3-7,10.9-12.8,8.8
			c-3.4-1.2-4.8-5.3-3-8.4c1-1.8,3.9-2.2,5.3-0.7c0.6,0.6,0.8,1.4,0.3,2.1c-0.4,0.7-1,1.4-1.6,2.1c-0.3,0.3-0.7,0.5-1.1,0.9
			c4.3-0.4,5.5-4.4,4.4-7.1c-0.2-0.6-1.1-1.1-1.7-1.4c-2.3-1.2-4.9-1.6-7.5-2c-1.8-0.3-3.6-0.4-5.6-0.6c0-0.3,0-0.7,0-1
			c0-1.8-0.1-3.7,0.1-5.5c0.1-0.8,0.3-1.8,0.7-2.5c0.9-1.4,2.6-1.3,3.3,0.3c0.4,0.9,0.5,1.8,0.8,2.9
			C230.6,189.9,231.7,189.9,232.9,189.9z"/>
		<path class="st6" d="M157.3,122.6c1.2-3,2.3-6,3.6-9.2c1.2,3.1,2.4,6.1,3.6,9.2c3,0,5.9,0,8.9,0c0,0.1,0.1,0.2,0.1,0.2
			c-2.4,1.8-4.8,3.7-7.2,5.5c1,3,2,6,2.9,8.9c-0.1,0-0.1,0.1-0.2,0.1c-2.7-1.7-5.3-3.5-8.1-5.2c-2.7,1.8-5.4,3.5-8.4,5.4
			c0.9-3.2,1.7-6.1,2.6-9.2c-2.3-1.8-4.5-3.7-6.8-5.5c0-0.1,0.1-0.1,0.1-0.2C151.4,122.6,154.3,122.6,157.3,122.6z"/>
		<path class="st0" d="M171.4,174.4c-1.4,0-2.6,0-3.8,0c-0.8-2-1.7-4.1-2.5-6.1c-4.1,0-8.2,0-12.4,0c-0.8,2-1.6,4-2.5,6.1
			c-1.2,0-2.3,0-3.6,0c3.5-8.3,7.1-16.5,10.6-24.8c1.2,0,2.4,0,3.7,0C164.4,157.8,167.9,166,171.4,174.4z M159.1,153
			c-0.1,0-0.2,0-0.2,0c-1.6,4-3.3,8.1-5,12.2c3.5,0,6.7,0,10.1,0C162.3,161.1,160.7,157.1,159.1,153z"/>
		<path class="st0" d="M190,206.6c1.4,0.3,2.6,0.7,3.9,1c1.6,0.3,3.2,0.1,4.6-0.9c2.1-1.4,2.4-4.3,0.5-5.9c-1.1-0.9-2.5-1.5-3.8-2.3
			c-1.2-0.7-2.4-1.2-3.5-2.1c-3.6-2.9-2.9-8.7,1.3-10.7c3.1-1.5,6.3-1.1,9.6-0.1c-0.1,1-0.3,2.1-0.4,3.1c-1.1-0.3-2.1-0.7-3.2-0.8
			c-1.2-0.1-2.4,0-3.6,0.2c-1.2,0.2-2.1,1-2.3,2.3c-0.3,1.3,0.1,2.5,1.3,3.3c1,0.7,2.1,1.2,3.1,1.8c1.3,0.8,2.7,1.5,3.9,2.3
			c3.6,2.6,3.5,9.9-1.9,11.9c-3.1,1.1-6.5,1.1-9.8-0.3C189.8,208.6,189.9,207.6,190,206.6z"/>
		<path class="st0" d="M233.7,224.6c0,2.5,0,4.8,0,7.3c3.1,0,6.2,0,9.3,0c0,1.1,0,2,0,3.1c-3.1,0-6.1,0-9.3,0c0,2.9,0,5.6,0,8.5
			c3.4,0,6.8,0,10.2,0c0,1.1,0,2,0,3c-4.6,0-9.1,0-13.8,0c0-8.2,0-16.4,0-24.7c4.5,0,9.1,0,13.8,0c0,0.4,0,0.9,0,1.4
			c0,0.5,0,1,0,1.6C240.6,224.6,237.2,224.6,233.7,224.6z"/>
		<path class="st0" d="M132.1,134c0,1.1,0,2.2,0,3.2c-3.8,1.8-11.8,1.4-15.6-3.2c-3.8-4.6-4-12.2-0.3-16.9c3.8-4.9,11.5-5.7,16-3.6
			c-0.1,1-0.1,2-0.2,3c-1.3-0.4-2.5-0.8-3.8-1c-5.7-1-10.7,3.1-11,8.9c-0.5,7.3,5.6,12.6,13.5,10.1
			C131.1,134.4,131.6,134.2,132.1,134z"/>
		<path class="st6" d="M218.6,169.6c-2.6,0-5.1,0-7.6,0c0-0.3-0.1-0.5-0.1-0.8c0-2.9,0-5.8,0-8.7c0-0.4,0.3-1,0.6-1.3
			c2.3-2.1,4.2-2.1,6.6,0.1c0.2,0.2,0.4,0.6,0.4,0.9C218.6,163,218.6,166.2,218.6,169.6z"/>
		<path class="st6" d="M234.4,169.6c-2.6,0-5.1,0-7.7,0c0-1,0-2,0-3c0-1.2,0.1-2.5,0-3.7c-0.1-1.2,0.3-2,1.2-2.6
			c1.1-0.7,2.2-1.4,3.6-0.9c0.9,0.4,1.8,1,2.6,1.6c0.2,0.1,0.3,0.5,0.3,0.7C234.4,164.3,234.4,166.9,234.4,169.6z"/>
		<path class="st6" d="M203.9,169.7c-2.6,0-5.1,0-7.7,0c0-1.2,0-2.3,0-3.4c0-1.2,0.1-2.3,0-3.5c-0.1-1.1,0.3-1.8,1.2-2.4
			c1-0.7,2-1.5,3.3-1c1,0.4,2,1,2.9,1.6c0.2,0.1,0.3,0.4,0.4,0.7c0,0.1,0,0.3,0,0.5C203.9,164.7,203.9,167.1,203.9,169.7z"/>
		<path class="st6" d="M138,226.6c2.6-0.5,5.1-0.5,7.8-0.2C145,227.3,139.8,227.4,138,226.6z"/>
		<path class="st6" d="M134.4,224.1c-0.8,0.7-1.6,0.6-2.1,0c-1-1.2-2.1-2.5-2.8-3.9c-0.8-1.6-1.2-3.3-1.7-5c-0.1-0.3,0-0.7,0-1.1
			c0.1,0,0.2-0.1,0.3-0.1c0.2,0.2,0.5,0.4,0.6,0.7c0.2,0.3,0.3,0.7,0.4,1.1c0.7,3.1,2.2,5.6,4.6,7.6
			C134,223.5,134.2,223.8,134.4,224.1z"/>
		<path class="st6" d="M149,223.9c0.1-0.4,0.2-0.8,0.3-1c0.3-0.4,0.7-0.8,1.1-1.1c1.7-1.7,3-3.7,3.6-6c0.2-0.9,0.6-1.8,0.9-2.7
			c0.1-0.4,0.4-0.7,0.7-1.2C156.2,214.7,152,222.5,149,223.9z"/>
		<path class="st6" d="M145.7,230.9c-0.4,0.3-0.8,0.7-1.2,0.8c-0.6,0.1-1-0.4-1-1c0-0.6,0.5-1.1,1.1-1c0.4,0.1,0.8,0.5,1.2,0.8
			C145.7,230.6,145.7,230.7,145.7,230.9z"/>
		<path class="st6" d="M142.9,230.9c-0.4,0.2-0.8,0.6-1.2,0.7c-0.7,0.1-1.1-0.5-1-1c0.1-0.4,0.7-0.9,1.1-0.9c0.3,0,0.8,0.5,1.1,0.8
			C142.9,230.6,142.9,230.8,142.9,230.9z"/>
		<path class="st6" d="M139.3,231.5c-1-0.1-1.3-0.4-1.3-1.1c0-0.7,0.5-1.1,1-1c0.4,0.1,0.9,0.6,1,1
			C140,230.8,139.5,231.2,139.3,231.5z"/>
		<path class="st6" d="M144.2,224.5c-1.6,0-3.3,0-4.9,0C140,223.5,143.6,223.4,144.2,224.5z"/>
		<path class="st6" d="M141.6,234.2c0.5,0.6,0.9,0.9,1,1.3c0.1,0.7-0.4,1.1-1,1c-0.4,0-0.9-0.6-0.9-1
			C140.7,235.2,141.2,234.8,141.6,234.2z"/>
		<path class="st6" d="M141.7,216.7c0.5,0.6,0.9,1,1,1.3c0.1,0.6-0.4,1-1,0.8c-0.4-0.1-0.9-0.6-0.9-0.8
			C140.7,217.6,141.2,217.3,141.7,216.7z"/>
		<path class="st6" d="M155.3,222.9c-0.7-0.3-1.4-0.7-2-1c0.1-0.1,0.2-0.2,0.2-0.4C154.1,222,154.7,222.4,155.3,222.9L155.3,222.9z"
			/>
		<path class="st6" d="M139.1,234.3c-0.3,0.2-0.4,0.4-0.6,0.4c-0.2,0-0.3-0.2-0.5-0.4c0.1-0.2,0.3-0.4,0.5-0.5
			C138.6,233.8,138.8,234.1,139.1,234.3z"/>
		<path class="st6" d="M142.4,232.6c0.2,0.2,0.5,0.5,0.5,0.5c-0.1,0.2-0.3,0.3-0.5,0.5c-0.1-0.2-0.4-0.3-0.4-0.5
			C142,233,142.3,232.9,142.4,232.6z"/>
		<path class="st6" d="M144.2,233.7c0.2,0.3,0.4,0.4,0.4,0.6c0,0.2-0.2,0.4-0.4,0.4c-0.1,0-0.4-0.2-0.4-0.4
			C143.8,234.1,144,234,144.2,233.7z"/>
		<path class="st6" d="M140.2,232.4c0.2,0.2,0.4,0.4,0.4,0.5c0,0.2-0.2,0.3-0.4,0.5c-0.2-0.1-0.4-0.3-0.4-0.4
			C139.7,232.9,140,232.7,140.2,232.4z"/>
		<path class="st6" d="M157.5,219.3c-0.4-0.2-0.9-0.4-1.3-0.6c0.1-0.1,0.2-0.2,0.2-0.3C156.8,218.7,157.1,219,157.5,219.3
			L157.5,219.3z"/>
		<path class="st6" d="M156.9,223.7c-0.2,0-0.3,0-0.5,0c0,0,0-0.1,0-0.1C156.5,223.6,156.7,223.7,156.9,223.7L156.9,223.7z"/>
		<path class="st6" d="M155.4,223c0.1,0,0.2,0.1,0.3,0.1c0,0,0,0.1,0,0.1C155.6,223.1,155.5,223,155.4,223L155.4,223z"/>
		<polygon points="143.7,242.1 143.7,242.1 143.7,242.2 		"/>
		<path d="M137,239.6C137,239.5,137,239.5,137,239.6C137,239.5,137,239.5,137,239.6L137,239.6z"/>
		<path d="M149.2,230.6C149.2,230.6,149.2,230.6,149.2,230.6C149.2,230.6,149.2,230.6,149.2,230.6L149.2,230.6z"/>
		<path class="st6" d="M215,120.4c2.9,0,5.2,2.3,5.2,5.2c0,2.8-2.4,5.3-5.3,5.2c-2.8,0-5.1-2.4-5.1-5.1
			C209.8,122.7,212.1,120.4,215,120.4z"/>
		<polygon class="st6" points="216.4,180.2 216.4,215.4 177.7,215.4 177.6,216.5 216.4,216.5 216.5,264.7 217.6,264.2 217.6,216.6 
			255.3,216.6 255.1,215.4 217.7,215.4 217.7,180.2 		"/>
		<polygon class="st6" points="140.9,107.6 140.9,143.4 105.1,143.4 105,144.6 140.9,144.6 140.9,180.2 142,180.3 142,144.5 
			178.1,144.5 178.1,143.5 142.1,143.5 142.1,107.5 		"/>
	</g>
</g>
</svg>
