<svg id="Layer_1" data-name="Layer 1" xmlns="http://www.w3.org/2000/svg" viewBox="0 0 350.4557 156.5585"><title>Erieview Metal Treating</title><path d="M254.7377,112.4222c-13.2636.1313-25.1094-8.3741-29.0546-20.3168a30.489,30.489,0,0,1,26.0812-39.836c.6962-.0657,1.3881-.1758,2.3672-.3019-.1722-17.2158-.3429-34.2916-.5156-51.5581,1.0519-.08,1.83-.19,2.609-.1908C270.46.2014,284.6956.2392,298.93.1444a4.5107,4.5107,0,0,1,4.3859,2.4727q23.0664,36.773,46.325,73.4249a3.7484,3.7484,0,0,1-.0261,4.6982q-12.3857,19.2674-24.6348,38.6225-11.0794,17.5338-21.9766,35.1824a3.737,3.737,0,0,1-3.645,2.0133c-13.9162-.0524-27.8326-.0154-41.749-.0162-.778,0-1.556-.093-2.4916-.1528-.0946-1.9172-.2419-3.6554-.2563-5.3947q-.1561-18.8321-.2627-37.6647a9.2785,9.2785,0,0,1,.09-.9543c1.4267-.1672,2.8564-.3146,4.2805-.5034a29.8067,29.8067,0,0,0,25.718-29.6641c-.2531-14.1711-9.6412-26.8826-25.6265-29.6429a8.1616,8.1616,0,0,0-4.3705.1314c0,.9562.0006,1.8242,0,2.6922q-.0143,19.0523-.0248,38.1045C254.668,99.8031,254.7125,106.1127,254.7377,112.4222Z"/><path d="M153.5843,0h49.1846c-.502.9592-.8348,1.722-1.2745,2.417q-14.9375,23.6063-29.8918,47.2019-8.329,13.1734-16.5859,26.3923c-.3344.533-.6078,1.1043-.9963,1.817,16.5949,26.12,33.8339,51.8474,50.3542,78.5433H153.9024c-.0866-.0918-.1449-.1472-.1952-.209a.5176.5176,0,0,1-.13-.1926,5.1643,5.1643,0,0,1-.1444-.9413q-.0272-76.8787-.0357-153.7575A10.9884,10.9884,0,0,1,153.5843,0Z"/><path d="M53.7269,54.8585h6.8872L64.9,82.7894l.5.0205L69.4128,54.913h6.6986c.5535,1.6818.7079,41.9228.141,45.3385a16.099,16.099,0,0,1-5.8075.1027c-.2228-7.38-.2782-14.69.103-22.0336l-3.77,22.0685H63.7168L59.198,76.8485c.13,7.71.2616,15.5036.3967,23.5082H53.7269Z"/><path d="M141.549,45.4968h-5.9018c-1.0557-7.7653-1.6867-15.5357-2.7853-23.2993a14.5109,14.5109,0,0,0-.5544,4.3835c-.1209,1.5139-.2585,3.0268-.3569,4.5422-.1036,1.5955-.1568,3.1942-.2556,4.79-.0939,1.5157-.2119,3.03-.3311,4.5439-.1247,1.5849-.2632,3.1687-.4012,4.8185a14.2473,14.2473,0,0,1-6.0233.1353L119.6627.2176h5.9308c.9357,7.6942,1.3417,15.4839,2.1505,23.3672.7067-7.833,1.4013-15.5327,2.1169-23.4643C130.9574.0781,131.89.0289,132.8233.01c.8713-.0179,1.7433-.0038,2.8782-.0038,1.0078,7.2821,1.3161,14.5016,2.6244,21.6283.6062-7.097,1.2123-14.194,1.8319-21.4485h5.9341C144.6687,15.2726,143.0612,30.2387,141.549,45.4968Z"/><path d="M117.43,132.974q-.2024-10.3077-.4025-20.6154c-.0165-.8651-.0023-1.7308-.0023-2.7017,2.0243-.5566,3.8249-.2212,5.5668-.2551.5911,1.8347.8655,40.9012.3544,45.2122-1.5511.7654-3.24.3612-4.8773.3405-1.0879-.0137-1.0867-.9848-1.2181-1.7659q-1.1927-7.092-2.3814-14.1847c-.5129-3.0694-1.0163-6.14-1.5422-9.321V154.82h-5.269c-.4862-1.9516-.6335-42.0773-.1541-45.335.8715-.04,1.7993-.0976,2.7279-.12.8692-.021,1.7394-.0045,2.8586-.0045.5224,2.9609,1.0242,5.7655,1.5109,8.5727.8055,4.6462,1.5951,9.2952,2.4126,13.9392a5.29,5.29,0,0,0,.4468,1.0749q-.0011,1.2116-.0007,2.4214l.4244-.034Z"/><path d="M17.763.5a2.899,2.899,0,0,1,.864-.2664C21.822.2693,25.03.1762,28.2074.44c2.6027.2163,3.7675,1.4361,3.87,4.0465.1841,4.71.1246,9.4308.1392,14.1471a4.2526,4.2526,0,0,1-2.2056,3.697A17.0556,17.0556,0,0,1,32.0111,25.8a14.7648,14.7648,0,0,1,.301,4.0411c.0423,4.1592.0472,8.3188.0421,12.4783-.0013,1.0225-.096,2.045-.1558,3.2258h-5.853V25.6615l-2.7715-.156v20H17.96C17.4527,43.8145,17.261,3.7078,17.763.5Zm5.88,5.4139V19.8122l2.559-.1871c-.0089-4.7353.13-9.2243-.08-13.8747Z"/><path d="M19.5564,109.5316c3.32,0,6.5163-.14,9.6952.0388,3.281.1847,4.58,1.634,4.6344,4.8993.0709,4.2349-.0162,8.4722.0358,12.7076a5.0756,5.0756,0,0,1-2.5,4.3845c2.5945,1.724,2.5546,4.2613,2.52,6.854-.0611,4.6349-.0182,9.2712-.0188,13.907,0,.7875,0,1.5749,0,2.4175-1.9623.6392-3.7453.3918-5.8272.2158V134.6454l-2.7949-.1565v20.2766a14.877,14.877,0,0,1-5.5681.2472C19.16,153.0036,18.9907,112.1979,19.5564,109.5316Zm5.8033,5.4v13.7709h2.4666V114.9315Z"/><path d="M145.2456,122.8385h-5.9133v-7.891h-2.67v34.3063l2.5345.15c.0512-1.0891.1229-1.945.1259-2.8013.011-3.04.015-6.08-.0139-9.12-.01-1.0587.3312-2.3-1.2046-2.7444-.19-.055-.3691-.5347-.3639-.8141.03-1.65-.3519-3.3362.3184-5.0178h7.0449c.0585.9477.1461,1.7245.148,2.5015q.02,8.52.0111,17.0395c0,.4.0049.8005-.015,1.2-.1905,3.813-1.65,5.3474-5.447,5.5593a31.3028,31.3028,0,0,1-4.7876-.0757c-2.7551-.2708-3.9948-1.5505-4.2828-4.2672a35.014,35.014,0,0,1-.1765-3.5919q-.0407-15.2393-.04-30.4787c0-1.2762.1042-2.5555.221-3.8278a3.7434,3.7434,0,0,1,3.2228-3.6417,17.9024,17.9024,0,0,1,8.0812.1339,3.8232,3.8232,0,0,1,2.92,3.4246C145.5208,116.1327,145.11,119.3848,145.2456,122.8385Z"/><path d="M129.6425,100.2287c-.7995.1028-1.2561.203-1.7146.2123-1.1854.0241-2.3716.0081-3.752.0081l-.6964-5.1942h-3.3143l-.5953,5.0362h-5.58c1.3647-15.2177,2.7146-30.27,4.0775-45.467h7.7893C127.12,69.9774,128.3762,85.0425,129.6425,100.2287Zm-6.3486-10.9863c-.4212-7.504-.8243-14.6844-1.2274-21.8648-.4541,7.2793-1.3438,14.5306-1.3014,21.9808Z"/><path d="M73.2286,154.9131H67.72l-.71-5.2959H63.8063l-.782,5.3139H58.0391c-.4582-1.7464,2.852-41.7812,3.7845-45.3526h7.5073Zm-7.675-32.24-.2376.0176c-.1592,2.5417-.3336,5.0825-.4742,7.6252q-.3428,6.2-.6368,12.4022a5.004,5.004,0,0,0,.2816,1.2143l2.351-.1908Z"/><path d="M78.632.0821c1.3045,0,2.1665-.0151,3.0277.0045.7839.0178,1.5669.0731,2.3076.11.4157,1.8451-3.6886,43.0206-4.5053,45.3666H73.7891C71.87,30.5192,70.0758,15.511,68.3627.29h5.88l2.2737,27.4791.1094-.0517Z"/><path d="M41.5474,109.5345h9.57v5.0862l-3.7066.37v13.9867l4.0419.3664v5.089l-4.0214.38v14.6287l4.0641.4318v4.7733c-1.7054.5665-6.43.6978-9.7329.2906C41.177,153.1829,40.9386,112.8716,41.5474,109.5345Z"/><path d="M6.0549,20.0308l4.14.3812v5.0119l-4.0246.32c-.2632,4.7322-.08,9.468-.079,14.4349l3.9458.2845c.6881,1.6281.3354,3.2624.2364,5.0817H.1752C.0573,30.56-.0476,15.6.0227.7091c1.9264-.6709,6.58-.7723,9.599-.2754.546,1.6871.5742,2.2586.2063,5.119l-3.7069.4223C5.9133,10.6082,6.0662,15.2587,6.0549,20.0308Z"/><path d="M53.2093,45.5281V.2384c3.2792-.0872,6.497-.1818,9.8537.0095V5.3933L59.16,5.9112v14.05c.69.0751,1.2964.1515,1.9048.2045.6265.0546,1.255.0864,2.0079.1365a13.5068,13.5068,0,0,1,.1889,5.1135l-4.1382.2738c-.1888,4.7923-.0874,9.5427.02,14.5158l4.0912.2083v5.1147Z"/><path d="M104.5753.1474h9.7694V5.2982l-3.56.3131c-.5708,1.7142-.7313,10.3081-.2548,14.3309l4.001.2979v5.0687l-4.06.3925V40.0789l4.0388.2925v5.09h-9.9347Z"/><path d="M90.0693,74.7392l4.0387.2656v5.1634l-3.9311.2543c-.2924,4.7865-.0929,9.5326-.1334,14.5154l4.0184.4573v4.9119H84.5534c-.5817-1.6276-.7113-42.5687-.1043-45.4539h9.363v5.0953l-3.6889.3179C89.9432,65.0142,90.0685,69.7572,90.0693,74.7392Z"/><path d="M101.7479,60.38l-2.4521-.485V55.1394c1.5824-.5467,7.0521-.6826,10.29-.2167v4.909l-1.8052.5755V100.179c-2.032.5131-3.8285.2279-5.87.2515-.0656-1.1422-.1729-2.1456-.1734-3.149q-.0084-17.0058.0114-34.0117C101.7484,62.3318,101.7479,61.3937,101.7479,60.38Z"/><path d="M11.0313,154.9754H5.1842V115.2218l-2.5173-.6792v-4.9049H12.9082v4.883l-1.8768.6448Z"/><path d="M85.7349,154.9213H79.956c-.21-2.628-.0852-5.2383-.1057-7.8389-.0208-2.6391-.0137-5.2784-.0158-7.9177q-.0033-4.0788-.0018-8.1577c-.003-2.6392-.0133-5.2784-.0162-7.9176-.0029-2.6288-.0006-5.2577-.0006-8.0133l-2.5474-.5236v-4.9462H87.52v4.8708l-1.7847.6462Z"/><path d="M136.2445,54.7933h5.656v40.1l2.9039.377c.7314,1.6121.2836,3.2337.2611,5.0162h-8.674C135.89,98.49,135.74,58.2884,136.2445,54.7933Z"/><path d="M45.2788,45.548H39.8V.6389C41.5333.0206,42.6182-.0231,45.1329.42,45.6074,2.1526,45.7695,42.64,45.2788,45.548Z"/><path d="M96.7261.2244V45.5232H91.41c-.5866-1.925-.6812-42.7612-.0824-45.2987Z"/><path d="M99.3816,154.836a14.4036,14.4036,0,0,1-1.5678.2029c-1.185.032-2.3715.01-3.4892.01-.6265-1.8333-.8728-41.641-.3172-45.4719H99.313C99.817,111.4676,99.894,152.4331,99.3816,154.836Z"/></svg>