<?xml version="1.0" encoding="utf-8"?>
<!-- Generator: Adobe Illustrator 16.0.0, SVG Export Plug-In . SVG Version: 6.00 Build 0)  -->
<!DOCTYPE svg PUBLIC "-//W3C//DTD SVG 1.1//EN" "http://www.w3.org/Graphics/SVG/1.1/DTD/svg11.dtd">
<svg version="1.1" id="Calque_1" xmlns="http://www.w3.org/2000/svg" xmlns:xlink="http://www.w3.org/1999/xlink" x="0px" y="0px"
	 width="227px" height="60px" viewBox="311.697 54.872 227 60" enable-background="new 311.697 54.872 227 60" xml:space="preserve"
	>
<g id="Calque_2">
</g>
<g id="Calque_1_1_">
	<g>
		<path fill="#002147" d="M368.729,82.706c-4.699-1.145-4.78-1.225-4.78-4.332c0-2.369,0.613-3.104,4.085-3.104
			c2.371,0,5.025,0.326,7.272,0.817l0.572-4.331c-2.697-0.613-5.556-0.899-7.926-0.899c-6.905,0-9.152,2.451-9.152,7.396
			c0,5.761,0.9,7.027,7.477,8.499c4.905,1.062,4.986,1.307,4.986,4.329c0,2.615-0.614,3.392-4.332,3.392
			c-2.697,0-5.148-0.49-7.681-1.267l-0.899,4.045c1.798,0.858,5.393,1.636,8.499,1.636c8.049,0,9.561-2.657,9.561-7.806
			C376.411,85.647,376.044,84.462,368.729,82.706z M396.444,84.299c2.082-0.899,3.022-2.165,3.022-4.413v-2.819
			c0-3.676-2.083-5.802-7.23-5.802H381.53v27.212h11.441c4.944,0,7.436-2.41,7.436-6.251v-2.901
			C400.407,86.668,398.937,84.83,396.444,84.299z M386.678,75.516h4.944c1.879,0,2.696,0.693,2.696,2.206v2.41
			c0,1.593-0.735,2.533-2.737,2.533h-4.904V75.516z M395.259,91.572c0,2.003-0.98,2.654-3.309,2.654h-5.271v-7.435h5.721
			c2.042,0,2.859,0.897,2.859,2.738L395.259,91.572L395.259,91.572z M416.057,83.675v4.127h2.545v6.14
			c-1.389,0.204-2.819,0.326-4.208,0.326c-3.597,0-4.74-1.552-4.74-4.208V79.764c0-2.778,1.185-4.248,4.779-4.248
			c2.656,0,5.148,0.204,7.642,0.735l0.572-4.495c-2.452-0.654-5.599-0.899-7.805-0.899c-7.069,0-10.337,2.615-10.337,8.213v11.605
			c0,5.393,3.188,8.212,9.846,8.212c2.861,0,6.251-0.409,9.112-1.225V83.675H416.057z"/>
		<path fill="#165788" d="M439.658,88.226c-3.564-0.892-3.564-0.999-3.564-3.482c0-2.079,0.54-2.673,3.482-2.673
			c1.485,0,3.186,0.188,4.615,0.513l0.189-1.971c-1.432-0.377-3.293-0.594-4.859-0.594c-4.454,0-5.75,1.511-5.75,4.643
			c0,3.724,0.514,4.562,4.859,5.535c3.698,0.836,3.726,1.053,3.726,3.482c0,2.052-0.595,2.808-3.483,2.808
			c-1.646,0-3.373-0.271-5.02-0.783l-0.378,1.89c1.539,0.621,3.616,0.946,5.344,0.946c4.94,0,5.858-1.782,5.858-4.915
			C444.677,90.114,444.434,89.412,439.658,88.226z M453.836,90.331l-4.696-10.043h-2.43l5.966,12.554v5.425h2.32v-5.425
			l5.968-12.554h-2.431L453.836,90.331z M468.829,88.226c-3.564-0.892-3.564-0.999-3.564-3.482c0-2.079,0.54-2.673,3.483-2.673
			c1.484,0,3.185,0.188,4.616,0.513l0.188-1.971c-1.43-0.377-3.293-0.594-4.858-0.594c-4.455,0-5.749,1.511-5.749,4.643
			c0,3.724,0.513,4.562,4.857,5.535c3.698,0.836,3.727,1.053,3.727,3.482c0,2.052-0.595,2.808-3.483,2.808
			c-1.646,0-3.373-0.271-5.02-0.783l-0.379,1.89c1.539,0.621,3.617,0.946,5.345,0.946c4.939,0,5.857-1.782,5.857-4.915
			C473.848,90.114,473.606,89.412,468.829,88.226z M476.151,82.367h5.372v15.899h2.323V82.367h5.371v-2.079h-13.066V82.367z
			 M494.38,90.089h7.666v-2.08h-7.666v-5.642h8.262v-2.079H492.06v17.979h10.607V96.19h-8.287V90.089L494.38,90.089z
			 M520.304,80.288l-5.183,13.902l-5.185-13.902h-2.941l-0.621,17.979h2.241l0.351-14.577l4.59,12.256h3.131l4.59-12.256
			l0.351,14.577h2.241l-0.621-17.979H520.304z M533.706,88.226c-3.564-0.892-3.564-0.999-3.564-3.482
			c0-2.079,0.541-2.673,3.484-2.673c1.484,0,3.185,0.188,4.616,0.513l0.188-1.971c-1.432-0.377-3.294-0.594-4.859-0.594
			c-4.455,0-5.751,1.511-5.751,4.643c0,3.724,0.515,4.562,4.86,5.535c3.697,0.836,3.726,1.053,3.726,3.482
			c0,2.052-0.595,2.808-3.483,2.808c-1.646,0-3.373-0.271-5.021-0.783l-0.379,1.89c1.539,0.621,3.618,0.946,5.346,0.946
			c4.94,0,5.858-1.782,5.858-4.915C538.727,90.114,538.484,89.412,533.706,88.226z"/>
		<path fill="#165788" d="M316.018,95.287l0.047,0.043l9.501-5.378c-0.553-0.301-1.051-0.687-1.472-1.14l-10.287,2.545
			C314.357,92.925,315.137,94.219,316.018,95.287z M324.395,80.628l-2.322-9.388c-1.23,0.86-2.372,1.777-3.404,2.757l4.587,8.104
			C323.557,81.549,323.94,81.051,324.395,80.628z M327.042,79.231L330.69,66.6c-1.827,0.769-3.601,1.619-5.278,2.556l-0.092,10.771
			C325.849,79.605,326.43,79.372,327.042,79.231z M331.107,79.792c0.553,0.301,1.05,0.685,1.472,1.138l10.286-2.544
			c-0.549-1.566-1.33-2.862-2.209-3.929l-0.042-0.047L331.107,79.792z M322.6,84.065c0.044-0.309,0.118-0.604,0.206-0.894
			l-6.414-6.667c-0.875,1.131-1.604,2.333-2.163,3.607l8.323,4.901C322.545,84.701,322.555,84.385,322.6,84.065z M332.277,89.115
			l2.323,9.388c1.229-0.859,2.372-1.777,3.404-2.758l-4.587-8.103C333.115,88.195,332.73,88.693,332.277,89.115z M334.072,85.678
			c-0.043,0.309-0.117,0.604-0.206,0.894l6.415,6.667c0.875-1.132,1.604-2.333,2.162-3.607l-8.323-4.901
			C334.127,85.042,334.116,85.358,334.072,85.678z M343.698,83.837c0.009-0.662-0.021-1.289-0.077-1.894l-10.34-0.086
			c0.322,0.527,0.554,1.109,0.695,1.72l9.485,2.739C343.606,85.514,343.688,84.689,343.698,83.837z M329.629,90.513l-3.646,12.631
			c1.827-0.769,3.601-1.62,5.276-2.557l0.092-10.771C330.823,90.139,330.242,90.373,329.629,90.513z M322.695,86.164l-9.485-2.738
			c-0.144,0.801-0.226,1.628-0.235,2.479c-0.009,0.662,0.021,1.291,0.076,1.894l10.341,0.088
			C323.069,87.359,322.836,86.778,322.695,86.164z M327.529,90.606c-0.308-0.043-0.604-0.116-0.893-0.205l-11.543,11.106
			l-3.426,6.025c2.613-0.559,5.37-1.263,8.13-2.135l8.68-14.743C328.165,90.663,327.849,90.651,327.529,90.606z"/>
		<path fill="#C60C30" d="M329.141,79.136c0.31,0.043,0.605,0.117,0.894,0.207l11.492-11.057l3.477-6.075
			c-2.612,0.558-5.368,1.262-8.128,2.132l-8.681,14.744C328.506,79.08,328.822,79.091,329.141,79.136z"/>
	</g>
</g>
</svg>
