<?xml version="1.0" encoding="utf-8"?>
<!-- Generator: Adobe Illustrator 21.1.0, SVG Export Plug-In . SVG Version: 6.00 Build 0)  -->
<svg version="1.1" id="Layer_1" xmlns="http://www.w3.org/2000/svg" xmlns:xlink="http://www.w3.org/1999/xlink" x="0px" y="0px"
	 viewBox="0 0 400 82.2" style="enable-background:new 0 0 400 82.2;" xml:space="preserve">
<title>Solidworks</title>
<g id="Layer_2">
	<g id="Layer_2-2">
		<path d="M284.5,41.1c0,0.2-0.1,0.5-0.2,0.7l-12.7,28.5c-0.5,1.4-1.9,2.3-3.4,2.4h-2.3l-3.7-17.9l-8.8,15.7
			c-0.4,0.6-0.9,1.1-1.4,1.6c-0.6,0.4-1.4,0.7-2.1,0.6c0,0,0,0-0.1,0v0h-2.7V39.8h2.2c0.4,0,0.7,0.1,1,0.3c0.3,0.3,0.5,0.7,0.5,1.1
			l-0.1,27.3L260.7,51h2.1c1.3-0.1,2.4,0.9,2.6,2.2l3.3,15.5l12.7-28.9h1.7c0.3,0,0.7,0.1,1,0.3C284.4,40.3,284.5,40.7,284.5,41.1
			 M400,39.8c0,0.5,0,2.4,0,2.5c0,0,0,0,0,0c0,0.5-0.4,0.9-0.8,1l0,0.1l0-0.1c-0.1,0-12.2,0-12.2,0c-2-0.2-3.8,1.3-4,3.4
			c0,0.1,0,0.2,0,0.3c0.1,1.3,0.8,2.5,1.8,3.4l8.7,8.6c0,0,3.1,2.6,3.1,6c0,0,0,0,0,0c0,2.5-0.7,7.6-7,7.7h-13.4v-2.5l0,0h0
			c0-0.5,0.3-0.9,0.8-1c0.1,0,12,0,12.1-0.1c2.5,0,4-1.6,4-3.6c0-1.3-0.6-2.6-1.6-3.5l-9.2-9c-0.9-0.8-2.8-2.9-2.8-5.5
			c0-2.5,0.7-7.6,7-7.7L400,39.8 M303.3,43.1c6,0.6,10.4,5.3,8.1,14.7c-2.3,9.6-8.8,13.1-14.9,12.8l-0.6,0
			c-5.9-0.8-10.3-5.3-7.9-14.7C290.4,46.3,297.3,42.7,303.3,43.1 M314.9,58.1c2-8.4-1-17.2-10.8-18.4v0
			c-10.6-0.8-17.3,6.5-19.6,15.9c-2.1,8.4,0.8,17.2,10.7,18.4v0C306,74.8,312.7,67.4,314.9,58.1 M374.7,40.1
			c0.3,0.2,0.4,0.5,0.4,0.9c0,0.4-0.2,0.9-0.5,1.2l-16.9,14.4l12.7,13.8c0.3,0.3,0.4,0.8,0.5,1.2c0,0.3-0.1,0.7-0.4,0.9
			c-0.3,0.2-0.6,0.3-0.9,0.3H368l-13.4-14.5l-2.7,14.5h-3.6l6.1-32.8h1.6c0.4,0,0.7,0.1,1,0.3c0.4,0.3,0.6,0.9,0.5,1.4l-2.2,12.8
			l16.9-14.5h1.6C374.1,39.8,374.5,39.9,374.7,40.1 M340.8,44.8c2.8,2.7,0.3,8.5-4.9,9.9c-2.5,0.5-5.1,0.7-7.7,0.6c-1,0-2.5,0-3.8,0
			l2.2-11.9c1.7,0,7.3-0.1,9.2,0c0.6,0,1.2,0.1,1.8,0.2C338.7,43.6,339.9,44.1,340.8,44.8 M344.1,42.8c-2.6-2.9-6.9-3-11.9-3h-8.4
			l-6.1,32.8h3.6l2.6-14.1l6.6,0l8.2,14.1h1.8c0.3,0,0.6-0.1,0.9-0.3c0.3-0.2,0.4-0.5,0.4-0.9c-0.1-0.4-0.2-0.8-0.5-1.2l-7-11.9
			c8.3-0.7,10.5-6.6,11-8.9C345.7,47.5,345.6,44.4,344.1,42.8 M101.3,46.8c0.6-3.8,3.9-7.2,7.6-7.2h16.9v3.5
			c-0.2,1.6-1.1,3.2-2.7,3.2h-12.7c-1.3,0-2,0.3-2.1,1.1c-0.1,0.5,0.2,0.8,1.1,1.5l11.2,7.9c2.4,1.7,3.6,4.3,3,8
			c-0.6,3.9-3.7,7.6-10,7.6H99.1v-4.6c0.2-1.5,0.9-2.1,2.2-2.1h12.2c2.2,0,2.8-0.5,3-1.7c0.1-0.9-0.4-1.4-1.5-2.2l-10.5-7.3
			C102.1,52.9,100.8,49.8,101.3,46.8 M228.3,39.6c10.4,0,14.3,6.6,12.6,15.9c-2.2,12.1-9.3,16.9-19.6,16.9h-13.8l4.1-22.7
			c0.2-0.7,0.8-1.1,1.5-1.1h6l-3.4,18.5h7.1c5.3,0,8.8-4.9,9.9-11.4c1.3-7-0.7-10.8-5.9-10.8h-13.1c-3.5,0-3.7-2.6-3.3-4.8l0.1-0.5
			L228.3,39.6 M186.4,67.1c1.3,0,1.8,0.6,1.5,2.1l-0.6,3.3h-23.1l6-32.8h6.1c0.5,0,1,0.4,1,1c0,0.1,0,0.1,0,0.2l-4.8,26.4H186.4
			 M203.7,39.6c0.5,0,1,0.4,1,0.9c0,0.1,0,0.1,0,0.2l-5.8,31.7h-7.3l6-32.8H203.7 M147,45.3c6.7,0,8.9,3.9,7.6,11.5
			c-1.2,7.6-4.7,11.5-11.4,11.5c-6.7,0-8.9-3.9-7.6-11.5C136.8,49.1,140.3,45.3,147,45.3 M161.8,56.8c1.5-9.3-2.2-17.1-14-17.1
			c-11.7,0-18,7.8-19.6,17.1c-1.5,9.3,2.2,17.1,14,17.1C154,73.9,160.3,66.1,161.8,56.8 M76.5,28.2c4,0.6,7.2,1.2,8,2.7
			c0.8,1.7-3.5,1.8-5.7,1.9c-10.5,0.2-16.8,0.4-17.1,3.6c-0.4,4.1,4.5,8.3,9.3,14.1c4.4,5.3,9.4,10.6,8,15.5
			c-1.8,6.1-10.1,7.4-18,7.4c-5.9-0.1-11.9-0.6-17.7-1.6c-3.7-0.7-3.2-2.3-2.2-2.9c1.1-0.6,7.5-0.6,11.9-0.9
			c3.6-0.2,14.2-0.2,15.9-2.6c2-3-2.9-8.1-7.5-13.5c-5.7-6.7-11.9-13.6-8.6-18.7C57.1,26.6,69.5,27,76.5,28.2 M44.3,42.7
			c2.5,1.6,3.7,4.7,2.9,7.6C44.6,59.4,35,70.5,13.6,79c-6.8,2.7-12.2,3.7-13.3,3c-1.2-0.8,2.3-6.8,3.4-8.8
			c3.5-6.5,7.5-12.7,11.9-18.6c1.5-2.1,3.9-5.8,6.1-5.5c1.9,0.3-0.3,4.2-1.8,6.7c-2.5,4.2-9.3,15.8-7.1,16.5
			c5,1.5,28.4-14.4,25-23.3c-1.6-4.1-11.8-4.5-18.2-4.5c-2.9,0-9.3,0.6-9.6-1.4c-0.4-1.9,9.7-3.7,15.5-4
			C31.9,38.6,39.9,39.7,44.3,42.7 M28.4,3.7C29,5.5,34.3,5,36.3,5C43.8,5,51,6.4,52.7,8.4c2.7,3.1-1.9,10.7-16.1,21
			c-2.7,2-4.8,3.8-5.2,4.7c-0.2,0.4-0.1,0.9,0.3,1.1c0.1,0.1,0.2,0.1,0.4,0.1c0.8,0.1,2.7-0.3,5.8-1.8C50.4,27.5,64.8,15,62,6.5
			C60.2,1.3,50.9-0.3,43,0C35.1,0.4,28,2.3,28.4,3.7"/>
	</g>
</g>
</svg>
