<svg xmlns="http://www.w3.org/2000/svg" viewBox="0 0 306.7163 62.7891"><title>think[box]</title><g id="Layer_2" data-name="Layer 2"><g id="Layer_2-2" data-name="Layer 2"><path d="M9.5762,21.8174V39.459c0,8.4248.8643,11.3057,5.6885,11.3057,2.0166,0,6.0488-.36,6.0488-.36l.2881,3.6719a57.3235,57.3235,0,0,1-6.6963.6484c-6.9131,0-9.6494-3.3838-9.6494-13.0332V21.8174H0V18.002H5.2559V6.625h4.32V18.002h11.377v3.8154Z"/><path d="M30.8877,53.9326V1.9443h4.248V19.8018s6.0488-2.5205,11.0176-2.5205c9.7207,0,11.9531,5.2568,11.9531,17.93V53.9326h-4.32V35.2832c0-9.793-1.1523-14.1133-8.1367-14.1133-4.8252,0-10.5137,2.4482-10.5137,2.4482V53.9326Z"/><path d="M70.8477,3.6719h4.32v5.4h-4.32Zm0,14.2578h4.32V53.9326h-4.32Z"/><path d="M88.4868,53.9326V17.93h4.32v2.5918s5.5449-3.24,11.0176-3.24c9.7207,0,11.9531,5.2568,11.9531,17.93V53.9326h-4.3213V35.2832c0-9.793-1.1514-14.1133-8.1367-14.1133a23.6927,23.6927,0,0,0-10.5127,3.0244V53.9326Z"/><path d="M129.5269,53.9326V1.9443h4.32V32.6191l5.4727-.1445L150.6968,17.93h4.9688L143.1362,34.4189l12.6006,19.5137h-4.8955L139.3921,36.6514l-5.5449.2158V53.9326Z"/><path d="M175.1743,4.1045H165.1655v54.58h10.0088v4.1045h-14.4V0h14.4Z"/><path d="M214.2,35.2832c0,11.9531-3.6719,19.3691-16.7051,19.3691-4.5361,0-10.9453-.72-10.9453-.72V1.9443h4.32V19.6572a27.622,27.622,0,0,1,10.585-2.376C211.104,17.2813,214.2,24.4824,214.2,35.2832Zm-4.4639.0723c0-8.0654-1.7285-14.1855-8.5693-14.1855A27.3794,27.3794,0,0,0,190.87,23.33V50.4766s4.3926.3594,6.5527.3594C208.0073,50.8359,209.7358,43.9238,209.7358,35.3555Z"/><path d="M251.855,35.4268c0,12.1689-3.0967,19.2256-14.6172,19.2256-11.5937,0-14.834-6.4082-14.834-19.2969,0-12.0254,3.6729-18.0742,14.834-18.0742C247.6782,17.2813,251.855,23.5459,251.855,35.4268Zm-4.4648,0c0-9.5762-2.8076-14.3291-10.1523-14.3291-7.8486,0-10.4414,4.248-10.4414,14.2578,0,10.2246,1.7285,15.48,10.4414,15.48S247.39,45.0039,247.39,35.4268Z"/><path d="M263.3716,17.93l9.2168,14.833,9.2891-14.833h4.6807l-11.377,18.001,11.377,18.002h-4.8252L272.5884,39.1l-9.1445,14.833h-4.7529l11.3057-18.002L258.62,17.93Z"/><path d="M292.3149,0h14.4014V62.7891H292.3149V58.6846h10.0088V4.1045H292.3149Z"/></g></g></svg>