<?xml version="1.0" encoding="utf-8"?>
<!-- Generator: Adobe Illustrator 18.0.0, SVG Export Plug-In . SVG Version: 6.00 Build 0)  -->
<!DOCTYPE svg PUBLIC "-//W3C//DTD SVG 1.1//EN" "http://www.w3.org/Graphics/SVG/1.1/DTD/svg11.dtd">
<svg version="1.1" id="Layer_1" xmlns="http://www.w3.org/2000/svg" xmlns:xlink="http://www.w3.org/1999/xlink" x="0px" y="0px"
	 viewBox="0 0 360 360" enable-background="new 0 0 360 360" xml:space="preserve">
<path fill="none" stroke="#000000" stroke-width="10" stroke-miterlimit="10" d="M187.1,287.3"/>
<path fill="none" stroke="#000000" stroke-width="10" stroke-miterlimit="10" d="M187.8,86.1"/>
<g>
	<path d="M181.1,61.3l0,6.4l0,1.6l-1,0l-13.5,0c-0.2,0-0.3,0-0.5,0c-0.1,0-0.3-0.1-0.5-0.2c-0.2-0.1-0.4-0.2-0.5-0.3
		c-0.1-0.1-0.3-0.3-0.4-0.5c-0.3-0.3-0.5-0.8-0.7-1.5c-0.2-0.7-0.3-1.4-0.3-2.3l0-6.4l0-1.6l1,0l13.5,0c0.2,0,0.3,0,0.5,0.1
		c0.1,0,0.3,0.1,0.5,0.2c0.4,0.1,0.7,0.4,1,0.9c0.3,0.4,0.5,0.8,0.7,1.5C181,59.7,181.1,60.4,181.1,61.3z M166.6,66.1l12.6,0l0-4.8
		c0-0.6-0.1-1-0.3-1.3c-0.2-0.1-0.4-0.2-0.6-0.3l-12.6,0l0,4.8c0,0.6,0.1,1.1,0.3,1.2C166.2,66,166.4,66.1,166.6,66.1z"/>
	<path d="M179.2,76.5c0.6,0,1.1,0.3,1.3,0.8c0.3,0.6,0.4,1.1,0.5,1.5l0.1,0.9l-1,0l-14.5,0c-0.1,0-0.1,0-0.2,0
		c-0.1,0-0.3-0.1-0.5-0.1c-0.2,0-0.4-0.3-0.8-0.8s-0.5-1.3-0.5-2.3l1,0L179.2,76.5z"/>
	<path d="M179.1,87c0.6,0,1.1,0.3,1.3,0.8c0.3,0.6,0.4,1.1,0.5,1.5l0.1,0.9l-1,0l-14.5,0c-0.1,0-0.1,0-0.2,0c-0.1,0-0.3-0.1-0.5-0.1
		c-0.2,0-0.4-0.3-0.8-0.8c-0.3-0.5-0.5-1.3-0.5-2.3l1,0L179.1,87z"/>
	<path d="M179.1,97.4c0.6,0,1.1,0.3,1.3,0.8c0.3,0.6,0.4,1.1,0.5,1.5l0.1,0.9l-1,0l-14.5,0c-0.1,0-0.1,0-0.2,0
		c-0.1,0-0.3-0.1-0.5-0.1c-0.2,0-0.4-0.3-0.8-0.8c-0.3-0.5-0.5-1.3-0.5-2.3l1,0L179.1,97.4z"/>
	<path d="M181,112.6l0,6.4l0,1.6l-1,0l-13.5,0c-0.2,0-0.3,0-0.5,0c-0.1,0-0.3-0.1-0.5-0.2c-0.2-0.1-0.4-0.2-0.5-0.3
		c-0.1-0.1-0.3-0.3-0.4-0.5c-0.3-0.3-0.5-0.8-0.7-1.5c-0.2-0.7-0.3-1.4-0.3-2.3l0-6.4l0-1.6l1,0l13.5,0c0.2,0,0.3,0,0.5,0.1
		c0.1,0,0.3,0.1,0.5,0.2c0.4,0.1,0.7,0.4,1,0.9c0.3,0.4,0.5,0.8,0.7,1.5C180.9,111,181,111.8,181,112.6z M166.4,117.4l12.6,0l0-4.8
		c0-0.6-0.1-1-0.3-1.3c-0.2-0.1-0.4-0.2-0.6-0.3l-12.6,0l0,4.8c0,0.6,0.1,1.1,0.3,1.2C166,117.3,166.2,117.4,166.4,117.4z"/>
	<path d="M180.9,132.8l0,6.4l0,1.6l-1,0l-13.5,0c-0.2,0-0.3,0-0.5,0c-0.1,0-0.3-0.1-0.5-0.2c-0.2-0.1-0.4-0.2-0.5-0.3
		c-0.1-0.1-0.3-0.3-0.4-0.5c-0.3-0.3-0.5-0.8-0.7-1.5c-0.2-0.7-0.3-1.4-0.3-2.3l0-6.4l0-1.6l1,0l13.5,0c0.2,0,0.3,0,0.5,0.1
		c0.1,0,0.3,0.1,0.5,0.2c0.4,0.1,0.7,0.4,1,0.9c0.3,0.4,0.5,0.8,0.7,1.5C180.8,131.1,180.9,131.9,180.9,132.8z M166.4,137.6l12.6,0
		l0-4.8c0-0.6-0.1-1-0.3-1.3c-0.2-0.1-0.4-0.2-0.6-0.3l-12.6,0l0,4.8c0,0.6,0.1,1.1,0.3,1.2C165.9,137.4,166.1,137.6,166.4,137.6z"
		/>
	<path d="M178.9,148c0.6,0,1.1,0.3,1.3,0.8c0.3,0.6,0.4,1.1,0.5,1.5l0.1,0.9l-1,0l-14.5,0c-0.1,0-0.1,0-0.2,0
		c-0.1,0-0.3-0.1-0.5-0.1c-0.2,0-0.4-0.3-0.8-0.8c-0.3-0.5-0.5-1.3-0.5-2.3l1,0L178.9,148z"/>
	<path d="M180.8,163.3l0,6.4l0,1.6l-1,0l-13.5,0c-0.2,0-0.3,0-0.5,0c-0.1,0-0.3-0.1-0.5-0.2c-0.2-0.1-0.4-0.2-0.5-0.3
		s-0.3-0.3-0.4-0.5c-0.3-0.3-0.5-0.8-0.7-1.5c-0.2-0.7-0.3-1.4-0.3-2.3l0-6.4l0-1.6l1,0l13.5,0c0.2,0,0.3,0,0.5,0.1
		c0.1,0,0.3,0.1,0.5,0.2c0.4,0.1,0.7,0.4,1,0.9c0.3,0.4,0.5,0.8,0.7,1.5C180.7,161.6,180.8,162.4,180.8,163.3z M166.3,168.1l12.6,0
		l0-4.8c0-0.6-0.1-1-0.3-1.3c-0.2-0.1-0.4-0.2-0.6-0.3l-12.6,0l0,4.8c0,0.6,0.1,1.1,0.3,1.2C165.8,168,166,168.1,166.3,168.1z"/>
</g>
<g>
	<path d="M86.1,87.5l4.5,4.6l1.2,1.2l-0.7,0.7l-9.6,9.5c-0.1,0.1-0.3,0.2-0.4,0.3c-0.1,0.1-0.3,0.1-0.5,0.2
		c-0.2,0.1-0.4,0.1-0.6,0.1c-0.2,0-0.4,0-0.7-0.1c-0.4,0-1-0.2-1.6-0.5s-1.2-0.8-1.8-1.4l-4.5-4.6l-1.2-1.2l0.7-0.7l9.6-9.5
		c0.1-0.1,0.2-0.2,0.4-0.3c0.1-0.1,0.3-0.1,0.5-0.2c0.4-0.1,0.8-0.2,1.3-0.1c0.4,0.1,1,0.2,1.6,0.5C84.9,86.4,85.5,86.9,86.1,87.5z
		 M79.2,101.2l8.9-8.9l-3.4-3.4c-0.4-0.4-0.8-0.7-1.2-0.7c-0.2,0-0.4,0.1-0.7,0.3L74,97.3l3.4,3.4c0.5,0.5,0.8,0.7,1.1,0.6
		C78.8,101.4,79.1,101.3,79.2,101.2z"/>
	<path d="M97.2,101.4c0.4-0.4,1-0.6,1.5-0.4s1.1,0.5,1.4,0.7l0.7,0.5l-0.7,0.7l-10.3,10.2c-0.1,0.1-0.1,0.1-0.1,0.1
		c-0.1,0.1-0.3,0.1-0.4,0.2s-0.5,0.1-1.1,0c-0.6-0.1-1.3-0.5-2-1.3l0.7-0.7L97.2,101.4z"/>
	<path d="M106.2,110.5c0.4-0.4,1-0.6,1.5-0.4c0.6,0.2,1.1,0.4,1.4,0.7l0.7,0.5l-0.7,0.7l-10.3,10.2c-0.1,0.1-0.1,0.1-0.1,0.1
		c-0.1,0.1-0.3,0.1-0.4,0.2s-0.5,0.1-1.1,0c-0.6-0.1-1.3-0.5-2-1.3l0.7-0.7L106.2,110.5z"/>
	<path d="M120,121.6l4.5,4.6l1.2,1.2L125,128l-9.6,9.5c-0.1,0.1-0.3,0.2-0.4,0.3c-0.1,0.1-0.3,0.1-0.5,0.2c-0.2,0.1-0.4,0.1-0.6,0.1
		c-0.2,0-0.4,0-0.7-0.1c-0.4,0-1-0.2-1.6-0.5c-0.6-0.3-1.2-0.8-1.8-1.4l-4.5-4.6l-1.2-1.2l0.7-0.7l9.6-9.5c0.1-0.1,0.2-0.2,0.4-0.3
		c0.1-0.1,0.3-0.1,0.5-0.2c0.4-0.1,0.8-0.2,1.3-0.1c0.4,0.1,1,0.2,1.6,0.5C118.8,120.5,119.4,121,120,121.6z M113.2,135.3l8.9-8.9
		l-3.4-3.4c-0.4-0.4-0.8-0.7-1.2-0.7c-0.2,0-0.4,0.1-0.7,0.3l-8.9,8.9l3.4,3.4c0.5,0.5,0.8,0.7,1.1,0.6
		C112.8,135.5,113,135.5,113.2,135.3z"/>
	<path d="M131.1,135.5c0.4-0.4,1-0.6,1.5-0.4c0.6,0.2,1.1,0.5,1.4,0.7l0.7,0.5l-0.7,0.7l-10.3,10.2c-0.1,0.1-0.1,0.1-0.1,0.1
		c-0.1,0.1-0.3,0.1-0.4,0.2c-0.1,0.1-0.5,0.1-1.1,0c-0.6-0.1-1.3-0.5-2-1.3l0.7-0.7L131.1,135.5z"/>
	<path d="M140.2,144.6c0.4-0.4,1-0.6,1.5-0.4c0.6,0.2,1.1,0.4,1.4,0.7l0.7,0.5l-0.7,0.7l-10.3,10.2c-0.1,0.1-0.1,0.1-0.1,0.1
		c-0.1,0.1-0.3,0.1-0.4,0.2c-0.1,0.1-0.5,0.1-1.1,0c-0.6-0.1-1.3-0.5-2-1.3l0.7-0.7L140.2,144.6z"/>
	<path d="M149.2,153.7c0.4-0.4,1-0.6,1.5-0.4c0.6,0.2,1.1,0.4,1.4,0.7l0.7,0.5l-0.7,0.7l-10.3,10.2c-0.1,0.1-0.1,0.1-0.1,0.1
		c-0.1,0.1-0.3,0.1-0.4,0.2c-0.1,0.1-0.5,0.1-1.1,0c-0.6-0.1-1.3-0.5-2-1.3l0.7-0.7L149.2,153.7z"/>
	<path d="M158.3,162.8c0.4-0.4,1-0.6,1.5-0.4c0.6,0.2,1.1,0.5,1.4,0.7l0.7,0.5l-0.7,0.7l-10.3,10.2c-0.1,0.1-0.1,0.1-0.1,0.1
		c-0.1,0.1-0.3,0.1-0.4,0.2c-0.1,0.1-0.5,0.1-1.1,0c-0.6-0.1-1.3-0.5-2-1.3l0.7-0.7L158.3,162.8z"/>
</g>
<g>
	<path d="M50.8,176.9l6.4,0.1l1.6,0l0,1l-0.1,13.8c0,0.2,0,0.3-0.1,0.5c0,0.1-0.1,0.3-0.2,0.5c-0.1,0.2-0.2,0.4-0.3,0.5
		c-0.1,0.1-0.3,0.3-0.5,0.4c-0.3,0.3-0.8,0.5-1.5,0.7c-0.7,0.2-1.4,0.3-2.3,0.3l-6.4-0.1l-1.6,0l0-1l0.1-13.8c0-0.2,0-0.3,0.1-0.5
		c0-0.1,0.1-0.3,0.2-0.5c0.1-0.4,0.4-0.7,0.9-1c0.4-0.3,0.8-0.5,1.5-0.7C49.2,177,49.9,176.9,50.8,176.9z M55.5,191.7l0.1-12.8
		l-4.8,0c-0.6,0-1,0.1-1.3,0.3c-0.1,0.2-0.2,0.4-0.3,0.7L49,192.6l4.8,0c0.6,0,1.1-0.1,1.3-0.3C55.4,192.1,55.5,191.9,55.5,191.7z"
		/>
	<path d="M64.6,179c0-0.6,0.3-1.1,0.9-1.4c0.6-0.3,1.1-0.4,1.5-0.5l0.9-0.1l0,1l-0.1,14.8c0,0.1,0,0.1,0,0.2c0,0.1-0.1,0.3-0.1,0.5
		c0,0.2-0.3,0.4-0.8,0.8c-0.5,0.3-1.3,0.5-2.3,0.5l0-1L64.6,179z"/>
	<path d="M73.6,179c0-0.6,0.3-1.1,0.9-1.4c0.6-0.3,1.1-0.4,1.5-0.5l0.9-0.1l0,1l-0.1,14.8c0,0.1,0,0.1,0,0.2c0,0.1-0.1,0.3-0.1,0.5
		c0,0.2-0.3,0.4-0.8,0.8c-0.5,0.3-1.3,0.5-2.3,0.5l0-1L73.6,179z"/>
	<path d="M87.4,177.2l6.4,0.1l1.6,0l0,1l-0.1,13.8c0,0.2,0,0.3-0.1,0.5c0,0.1-0.1,0.3-0.2,0.5c-0.1,0.2-0.2,0.4-0.3,0.5
		c-0.1,0.1-0.3,0.3-0.5,0.4c-0.3,0.3-0.8,0.5-1.5,0.7c-0.7,0.2-1.4,0.3-2.3,0.3l-6.4-0.1l-1.6,0l0-1l0.1-13.8c0-0.2,0-0.3,0.1-0.5
		c0-0.1,0.1-0.3,0.2-0.5c0.1-0.4,0.4-0.7,0.9-1c0.4-0.3,0.8-0.5,1.5-0.7C85.8,177.3,86.5,177.2,87.4,177.2z M92.1,192l0.1-12.8
		l-4.8,0c-0.6,0-1,0.1-1.3,0.3c-0.1,0.2-0.2,0.4-0.3,0.7L85.6,193l4.8,0c0.6,0,1.1-0.1,1.3-0.3C92,192.5,92.1,192.3,92.1,192z"/>
	<path d="M106.1,177.4l6.4,0.1l1.6,0l0,1l-0.1,13.8c0,0.2,0,0.3-0.1,0.5c0,0.1-0.1,0.3-0.2,0.5c-0.1,0.2-0.2,0.4-0.3,0.5
		s-0.3,0.3-0.5,0.4c-0.3,0.3-0.8,0.5-1.5,0.7c-0.7,0.2-1.4,0.3-2.3,0.3l-6.4-0.1l-1.6,0l0-1l0.1-13.8c0-0.2,0-0.3,0.1-0.5
		c0-0.1,0.1-0.3,0.2-0.5c0.1-0.4,0.4-0.7,0.9-1c0.4-0.3,0.8-0.5,1.5-0.7C104.5,177.5,105.2,177.4,106.1,177.4z M110.8,192.2
		l0.1-12.8l-4.8,0c-0.6,0-1,0.1-1.3,0.3c-0.1,0.2-0.2,0.4-0.3,0.7l-0.1,12.8l4.8,0c0.6,0,1.1-0.1,1.3-0.3
		C110.7,192.7,110.8,192.5,110.8,192.2z"/>
	<path d="M124.8,177.6l6.4,0.1l1.6,0l0,1l-0.1,13.8c0,0.2,0,0.3-0.1,0.5c0,0.1-0.1,0.3-0.2,0.5c-0.1,0.2-0.2,0.4-0.3,0.5
		s-0.3,0.3-0.5,0.4c-0.3,0.3-0.8,0.5-1.5,0.7c-0.7,0.2-1.4,0.3-2.3,0.3l-6.4-0.1l-1.6,0l0-1l0.1-13.8c0-0.2,0-0.3,0.1-0.5
		c0-0.1,0.1-0.3,0.2-0.5c0.1-0.4,0.4-0.7,0.9-1c0.4-0.3,0.9-0.5,1.5-0.7C123.1,177.7,123.9,177.6,124.8,177.6z M129.5,192.4
		l0.1-12.8l-4.8,0c-0.6,0-1,0.1-1.3,0.3c-0.1,0.2-0.2,0.4-0.3,0.7l-0.1,12.8l4.8,0c0.6,0,1.1-0.1,1.3-0.3
		C129.3,192.9,129.5,192.6,129.5,192.4z"/>
	<path d="M138.6,179.7c0-0.6,0.3-1.1,0.9-1.4c0.6-0.3,1.1-0.4,1.5-0.5l0.9-0.1l0,1l-0.1,14.8c0,0.1,0,0.1,0,0.2
		c0,0.1-0.1,0.3-0.1,0.5c0,0.2-0.3,0.4-0.8,0.8c-0.5,0.3-1.3,0.5-2.3,0.5l0-1L138.6,179.7z"/>
	<path d="M152.4,177.9l6.4,0.1l1.6,0l0,1l-0.1,13.8c0,0.2,0,0.3-0.1,0.5c0,0.1-0.1,0.3-0.2,0.5c-0.1,0.2-0.2,0.4-0.3,0.5
		s-0.3,0.3-0.5,0.4c-0.3,0.3-0.8,0.5-1.5,0.7c-0.7,0.2-1.4,0.3-2.3,0.3l-6.4-0.1l-1.6,0l0-1l0.1-13.8c0-0.2,0-0.3,0.1-0.5
		c0-0.1,0.1-0.3,0.2-0.5c0.1-0.4,0.4-0.7,0.9-1c0.4-0.3,0.9-0.5,1.5-0.7C150.8,178,151.5,177.9,152.4,177.9z M157.1,192.7l0.1-12.8
		l-4.8,0c-0.6,0-1,0.1-1.3,0.3c-0.1,0.2-0.2,0.4-0.3,0.7l-0.1,12.8l4.8,0c0.6,0,1.1-0.1,1.3-0.3C157,193.1,157.1,192.9,157.1,192.7z
		"/>
</g>
<path fill="none" stroke="#000000" stroke-width="6" stroke-miterlimit="10" d="M211.8,311.4c-8.2,1.6-16.6,2.5-25.2,2.5"/>
<path fill="none" stroke="#000000" stroke-width="6" stroke-miterlimit="10" d="M211.8,309.4"/>
<path fill="none" stroke="#000000" stroke-width="6" stroke-miterlimit="10" d="M256.7,290.7"/>
<path fill="none" stroke="#000000" stroke-width="6" stroke-miterlimit="10" d="M291.6,259c-4.5,6.6-9.7,12.8-15.4,18.5
	c-5.7,5.6-11.9,10.8-18.6,15.2"/>
<path fill="none" stroke="#000000" stroke-width="6" stroke-miterlimit="10" d="M290.6,257"/>
<path fill="none" stroke="#000000" stroke-width="6" stroke-miterlimit="10" d="M309.6,212.3"/>
<path fill="none" stroke="#000000" stroke-width="6" stroke-miterlimit="10" d="M311.7,161.8c1.6,8.2,2.5,16.6,2.5,25.2
	s-0.9,17.1-2.6,25.2"/>
<path fill="none" stroke="#000000" stroke-width="6" stroke-miterlimit="10" d="M309.7,161.8"/>
<path fill="none" stroke="#000000" stroke-width="6" stroke-miterlimit="10" d="M291.1,117"/>
<path fill="none" stroke="#000000" stroke-width="6" stroke-miterlimit="10" d="M258.3,81.1c6.6,4.5,12.8,9.7,18.5,15.4
	c5.6,5.7,10.8,11.9,15.2,18.6"/>
<path fill="none" stroke="#000000" stroke-width="6" stroke-miterlimit="10" d="M257.3,83.1"/>
<path fill="none" stroke="#000000" stroke-width="6" stroke-miterlimit="10" d="M212.6,64.1"/>
<path fill="none" stroke="#000000" stroke-width="6" stroke-miterlimit="10" d="M187.4,59.5c8.6,0,17.1,0.9,25.2,2.6"/>
<path fill="none" stroke="#000000" stroke-width="6" stroke-miterlimit="10" d="M207.4,285.3"/>
<path fill="none" stroke="#000000" stroke-width="6" stroke-miterlimit="10" d="M243.4,268.3c-5.4,3.6-11.1,6.7-17.1,9.2
	c-6,2.5-12.3,4.5-18.9,5.8"/>
<path fill="none" stroke="#000000" stroke-width="6" stroke-miterlimit="10" d="M283.9,207.3c-1.4,6.5-3.4,12.9-5.9,18.9
	c-2.6,6-5.7,11.7-9.3,17.1"/>
<path fill="none" stroke="#000000" stroke-width="6" stroke-miterlimit="10" d="M269,130.7c3.6,5.4,6.7,11.1,9.2,17.1
	c2.5,6,4.5,12.3,5.8,18.9"/>
<path fill="none" stroke="#000000" stroke-width="6" stroke-miterlimit="10" d="M208,90.2c6.5,1.4,12.9,3.4,18.9,5.9
	c6,2.6,11.7,5.7,17.1,9.3"/>
<path fill="none" stroke="#000000" stroke-width="6" stroke-miterlimit="10" d="M208,88.2"/>
<polyline fill="none" stroke="#000000" stroke-width="6" stroke-miterlimit="10" points="186.9,205 186.9,220.9 186.8,236.9 
	186.8,252.9 186.7,268.9 186.7,284.9 186.6,300.8 186.6,316.8 "/>
<polyline fill="none" stroke="#000000" stroke-width="6" stroke-miterlimit="10" points="187.4,56.5 187.4,72.5 187.3,88.4 
	187.3,104.4 187.2,120.4 187.2,136.4 187.1,152.4 187,168.4 "/>
<path fill="none" stroke="#000000" stroke-width="6" stroke-miterlimit="10" d="M184.6,165.4c11.7,0,21.2,9.6,21.2,21.3
	c0,11.7-9.6,21.2-21.3,21.2"/>
<line fill="none" stroke="#000000" stroke-width="6" stroke-miterlimit="10" x1="213.9" y1="59.3" x2="207.3" y2="93.1"/>
<line fill="none" stroke="#000000" stroke-width="6" stroke-miterlimit="10" x1="241.4" y1="107.4" x2="260.3" y2="78.8"/>
<line fill="none" stroke="#000000" stroke-width="6" stroke-miterlimit="10" x1="295.1" y1="114.2" x2="267.1" y2="133.4"/>
<line fill="none" stroke="#000000" stroke-width="6" stroke-miterlimit="10" x1="281.1" y1="167.7" x2="314.6" y2="160.9"/>
<line fill="none" stroke="#000000" stroke-width="6" stroke-miterlimit="10" x1="314.4" y1="213.3" x2="281" y2="206.3"/>
<line fill="none" stroke="#000000" stroke-width="6" stroke-miterlimit="10" x1="266.8" y1="240.5" x2="294.8" y2="259.8"/>
<line fill="none" stroke="#000000" stroke-width="6" stroke-miterlimit="10" x1="259.6" y1="295" x2="240.8" y2="266.2"/>
<line fill="none" stroke="#000000" stroke-width="6" stroke-miterlimit="10" x1="206.3" y1="280.2" x2="212.8" y2="314.3"/>
<g>
	<path d="M72.9,273.5l4.5-4.6l1.2-1.2l0.7,0.7l9.6,9.6c0.1,0.1,0.2,0.3,0.3,0.4c0.1,0.1,0.1,0.3,0.2,0.5c0.1,0.2,0.1,0.4,0.1,0.6
		c0,0.2,0,0.4-0.1,0.7c0,0.4-0.2,1-0.5,1.6c-0.3,0.6-0.8,1.2-1.4,1.8l-4.5,4.6l-1.2,1.2l-0.7-0.7l-9.6-9.6c-0.1-0.1-0.2-0.2-0.3-0.4
		c-0.1-0.1-0.1-0.3-0.2-0.5c-0.1-0.3-0.2-0.8-0.1-1.3c0.1-0.4,0.2-1,0.5-1.6C71.9,274.7,72.3,274.1,72.9,273.5z M86.6,280.3
		l-8.9-8.9l-3.4,3.4c-0.4,0.4-0.7,0.8-0.7,1.2c0,0.2,0.1,0.4,0.3,0.7l8.9,8.9l3.4-3.4c0.5-0.5,0.7-0.8,0.6-1.1
		C86.9,280.7,86.8,280.5,86.6,280.3z"/>
	<path d="M86.8,262.3c-0.4-0.4-0.6-1-0.4-1.5c0.2-0.6,0.4-1.1,0.7-1.4l0.5-0.7l0.7,0.7l10.3,10.3c0.1,0.1,0.1,0.1,0.1,0.1
		c0.1,0.1,0.1,0.3,0.2,0.4c0.1,0.1,0.1,0.5,0,1.1c-0.1,0.6-0.5,1.3-1.2,2l-0.7-0.7L86.8,262.3z"/>
	<path d="M95.8,253.3c-0.4-0.4-0.6-1-0.4-1.5c0.2-0.6,0.4-1.1,0.7-1.4l0.5-0.7l0.7,0.7l10.3,10.3c0.1,0.1,0.1,0.1,0.1,0.1
		c0.1,0.1,0.1,0.3,0.2,0.4c0.1,0.1,0.1,0.5,0,1.1c-0.1,0.6-0.5,1.3-1.2,2l-0.7-0.7L95.8,253.3z"/>
	<path d="M106.9,239.4l4.5-4.6l1.2-1.2l0.7,0.7l9.6,9.6c0.1,0.1,0.2,0.2,0.3,0.4c0.1,0.1,0.1,0.3,0.2,0.5c0.1,0.2,0.1,0.4,0.1,0.6
		c0,0.2,0,0.4-0.1,0.7c0,0.4-0.2,1-0.5,1.6c-0.3,0.6-0.8,1.2-1.4,1.8L117,254l-1.2,1.2l-0.7-0.7l-9.6-9.6c-0.1-0.1-0.2-0.2-0.3-0.4
		c-0.1-0.1-0.1-0.3-0.2-0.5c-0.1-0.3-0.2-0.8-0.1-1.3c0.1-0.4,0.2-1,0.5-1.6C105.9,240.6,106.3,240,106.9,239.4z M120.6,246.2
		l-8.9-8.9l-3.4,3.4c-0.4,0.4-0.7,0.8-0.7,1.2c0,0.2,0.1,0.4,0.3,0.7l8.9,8.9l3.4-3.4c0.5-0.5,0.7-0.8,0.6-1.1
		C120.9,246.6,120.8,246.4,120.6,246.2z"/>
	<path d="M120.8,228.2c-0.4-0.4-0.6-1-0.4-1.5c0.2-0.6,0.4-1.1,0.7-1.4l0.5-0.7l0.7,0.7l10.3,10.3c0.1,0.1,0.1,0.1,0.1,0.1
		c0.1,0.1,0.1,0.3,0.2,0.4c0.1,0.1,0.1,0.5,0,1.1c-0.1,0.6-0.5,1.3-1.2,2l-0.7-0.7L120.8,228.2z"/>
	<path d="M129.8,219.2c-0.4-0.4-0.6-1-0.4-1.5c0.2-0.6,0.4-1.1,0.7-1.4l0.5-0.7l0.7,0.7l10.3,10.3c0.1,0.1,0.1,0.1,0.1,0.1
		c0.1,0.1,0.1,0.3,0.2,0.4c0.1,0.1,0.1,0.5,0,1.1c-0.1,0.6-0.5,1.3-1.2,2l-0.7-0.7L129.8,219.2z"/>
	<path d="M138.9,210.1c-0.4-0.4-0.6-1-0.4-1.5s0.4-1.1,0.7-1.4l0.5-0.7l0.7,0.7l10.3,10.3c0.1,0.1,0.1,0.1,0.1,0.1
		c0.1,0.1,0.1,0.3,0.2,0.4c0.1,0.1,0.1,0.5,0,1.1s-0.5,1.3-1.2,2l-0.7-0.7L138.9,210.1z"/>
	<path d="M147.9,201c-0.4-0.4-0.6-1-0.4-1.5c0.2-0.6,0.4-1.1,0.7-1.4l0.5-0.7l0.7,0.7l10.3,10.3c0.1,0.1,0.1,0.1,0.1,0.1
		c0.1,0.1,0.1,0.3,0.2,0.4c0.1,0.1,0.1,0.5,0,1.1c-0.1,0.6-0.5,1.3-1.2,2l-0.7-0.7L147.9,201z"/>
</g>
<g>
	<path d="M162.2,312.3l0-6.4l0-1.6l1,0l13.5,0c0.2,0,0.3,0,0.5,0c0.1,0,0.3,0.1,0.5,0.2c0.2,0.1,0.4,0.2,0.5,0.3s0.3,0.3,0.4,0.5
		c0.3,0.3,0.5,0.8,0.7,1.5c0.2,0.7,0.3,1.4,0.3,2.3l0,6.4l0,1.6l-1,0l-13.5,0c-0.2,0-0.3,0-0.5-0.1c-0.1,0-0.3-0.1-0.5-0.2
		c-0.4-0.1-0.7-0.4-1-0.9c-0.3-0.4-0.5-0.8-0.7-1.5C162.3,314,162.2,313.2,162.2,312.3z M176.7,307.5l-12.6,0l0,4.8
		c0,0.6,0.1,1,0.3,1.3c0.2,0.1,0.4,0.2,0.6,0.3l12.6,0l0-4.8c0-0.6-0.1-1.1-0.3-1.2C177.1,307.6,176.9,307.5,176.7,307.5z"/>
	<path d="M164.1,297.1c-0.6,0-1.1-0.3-1.3-0.8c-0.3-0.6-0.4-1.1-0.5-1.5l-0.1-0.9l1,0l14.5,0c0.1,0,0.1,0,0.2,0
		c0.1,0,0.3,0.1,0.5,0.1c0.2,0,0.4,0.3,0.8,0.8c0.3,0.5,0.5,1.3,0.5,2.3l-1,0L164.1,297.1z"/>
	<path d="M164.1,286.6c-0.6,0-1.1-0.3-1.3-0.8c-0.3-0.6-0.4-1.1-0.5-1.5l-0.1-0.9l1,0l14.5,0c0.1,0,0.1,0,0.2,0
		c0.1,0,0.3,0.1,0.5,0.1c0.2,0,0.4,0.3,0.8,0.8c0.3,0.5,0.5,1.3,0.5,2.3l-1,0L164.1,286.6z"/>
	<path d="M164.1,276.2c-0.6,0-1.1-0.3-1.3-0.8c-0.3-0.6-0.4-1.1-0.5-1.5l-0.1-0.9l1,0l14.5,0c0.1,0,0.1,0,0.2,0
		c0.1,0,0.3,0.1,0.5,0.1c0.2,0,0.4,0.3,0.8,0.8c0.3,0.5,0.5,1.3,0.5,2.3l-1,0L164.1,276.2z"/>
	<path d="M162.3,261l0-6.4l0-1.6l1,0l13.5,0c0.2,0,0.3,0,0.5,0c0.1,0,0.3,0.1,0.5,0.2c0.2,0.1,0.4,0.2,0.5,0.3s0.3,0.3,0.4,0.5
		c0.3,0.3,0.5,0.8,0.7,1.5c0.2,0.7,0.3,1.4,0.3,2.3l0,6.4l0,1.6l-1,0l-13.5,0c-0.2,0-0.3,0-0.5-0.1s-0.3-0.1-0.5-0.2
		c-0.4-0.1-0.7-0.4-1-0.9c-0.3-0.4-0.5-0.8-0.7-1.5C162.4,262.6,162.3,261.8,162.3,261z M176.8,256.1l-12.6,0l0,4.8
		c0,0.6,0.1,1,0.3,1.3c0.2,0.1,0.4,0.2,0.6,0.3l12.6,0l0-4.8c0-0.6-0.1-1.1-0.3-1.2C177.2,256.3,177,256.1,176.8,256.1z"/>
	<path d="M164.2,245.7c-0.6,0-1.1-0.3-1.3-0.8c-0.3-0.6-0.4-1.1-0.5-1.5l-0.1-0.9l1,0l14.5,0c0.1,0,0.1,0,0.2,0
		c0.1,0,0.3,0.1,0.5,0.1c0.2,0,0.4,0.3,0.8,0.8c0.3,0.5,0.5,1.3,0.5,2.3l-1,0L164.2,245.7z"/>
	<path d="M162.3,230.4l0-6.4l0-1.6l1,0l13.5,0c0.2,0,0.3,0,0.5,0c0.1,0,0.3,0.1,0.5,0.2c0.2,0.1,0.4,0.2,0.5,0.3s0.3,0.3,0.4,0.5
		c0.3,0.3,0.5,0.8,0.7,1.5c0.2,0.7,0.3,1.4,0.3,2.3l0,6.4l0,1.6l-1,0l-13.5,0c-0.2,0-0.3,0-0.5-0.1c-0.1,0-0.3-0.1-0.5-0.2
		c-0.4-0.1-0.7-0.4-1-0.9c-0.3-0.4-0.5-0.8-0.7-1.5C162.4,232.1,162.3,231.3,162.3,230.4z M176.8,225.6l-12.6,0l0,4.8
		c0,0.6,0.1,1,0.3,1.3c0.2,0.1,0.4,0.2,0.6,0.3l12.6,0l0-4.8c0-0.6-0.1-1.1-0.3-1.2C177.3,225.7,177.1,225.6,176.8,225.6z"/>
	<path d="M162.3,210.3l0-6.4l0-1.6l1,0l13.5,0c0.2,0,0.3,0,0.5,0c0.1,0,0.3,0.1,0.5,0.2c0.2,0.1,0.4,0.2,0.5,0.3s0.3,0.3,0.4,0.5
		c0.3,0.3,0.5,0.8,0.7,1.5c0.2,0.7,0.3,1.4,0.3,2.3l0,6.4l0,1.6l-1,0l-13.5,0c-0.2,0-0.3,0-0.5-0.1c-0.1,0-0.3-0.1-0.5-0.2
		c-0.4-0.1-0.7-0.4-1-0.9c-0.3-0.4-0.5-0.8-0.7-1.5C162.5,212,162.3,211.2,162.3,210.3z M176.9,205.5l-12.6,0l0,4.8
		c0,0.6,0.1,1,0.3,1.3c0.2,0.1,0.4,0.2,0.6,0.3l12.6,0l0-4.8c0-0.6-0.1-1.1-0.3-1.2C177.3,205.6,177.1,205.5,176.9,205.5z"/>
</g>
</svg>
